<?xml version="1.0" encoding="UTF-8"?>
<svg version="1.1" xmlns="http://www.w3.org/2000/svg" width="551" height="551">
<path d="M0 0 C0.98822754 0.00248749 1.97645508 0.00497498 2.99462891 0.00753784 C63.41728358 0.24223036 123.88573555 19.736939 171 58.3125 C171.52754883 58.74385254 172.05509766 59.17520508 172.59863281 59.61962891 C192.05173992 75.60105073 209.10840558 92.97355924 224 113.3125 C224.65355469 114.19164063 225.30710937 115.07078125 225.98046875 115.9765625 C266.40384595 171.85876091 284.29079594 244.8969449 274.40844727 313.23144531 C273.97213406 315.93217802 273.49417188 318.62179248 273 321.3125 C272.75056641 322.74239258 272.75056641 322.74239258 272.49609375 324.20117188 C264.42913751 369.64502537 245.51832979 412.71160528 216 448.3125 C215.35160156 449.13363281 214.70320313 449.95476562 214.03515625 450.80078125 C190.96567298 479.79873508 161.86268299 503.23813349 129 520.3125 C128.10990234 520.7765625 127.21980469 521.240625 126.30273438 521.71875 C87.41412897 541.74990289 45.09531374 551.53168923 1.4375 551.5625 C0.57550995 551.56317474 -0.2864801 551.56384949 -1.17459106 551.56454468 C-15.9517647 551.54625419 -30.40329091 550.77068936 -45 548.3125 C-46.48330811 548.06306641 -46.48330811 548.06306641 -47.99658203 547.80859375 C-71.60430497 543.66890536 -94.30621911 536.47345724 -116 526.3125 C-116.70769531 525.98282227 -117.41539062 525.65314453 -118.14453125 525.31347656 C-133.50855585 518.07945924 -148.57356356 509.73962755 -162 499.3125 C-163.05574219 498.52101563 -164.11148438 497.72953125 -165.19921875 496.9140625 C-171.30089705 492.32469001 -177.12587657 487.56099012 -182.74609375 482.3828125 C-184.75303483 480.53934843 -186.79912242 478.76470907 -188.875 477 C-198.15486332 468.882463 -206.42486416 460.03280706 -214 450.3125 C-214.80050781 449.30574219 -215.60101563 448.29898437 -216.42578125 447.26171875 C-251.43754749 402.90846288 -274.91786008 346.12180975 -275.203125 289.1171875 C-275.21364647 287.70382111 -275.21364647 287.70382111 -275.22438049 286.26190186 C-275.24179098 283.23705207 -275.24823302 280.21239806 -275.25 277.1875 C-275.25101212 275.63733185 -275.25101212 275.63733185 -275.25204468 274.05584717 C-275.23631802 258.91268829 -274.8176241 244.2307888 -272 229.3125 C-271.82839355 228.34908691 -271.65678711 227.38567383 -271.47998047 226.39306641 C-260.0359099 162.93421218 -225.63431789 100.94681041 -174 61.3125 C-172.73754054 60.31082869 -171.47588173 59.30814778 -170.21484375 58.3046875 C-121.57238893 19.9432569 -61.75259371 -0.24914929 0 0 Z " fill="#FAFAFA" transform="translate(275,-0.3125)"/>
<path d="M0 0 C2.68075531 0.0031544 5.3603959 -0.02038857 8.04101562 -0.0456543 C25.52939509 -0.10926295 42.19417678 2.28616745 58.94726562 7.31567383 C59.945 7.60595459 59.945 7.60595459 60.96289062 7.90209961 C69.60899246 10.41913913 77.85866786 13.31369197 85.94726562 17.31567383 C86.84058594 17.73204102 87.73390625 18.1484082 88.65429688 18.57739258 C108.54088385 28.07180961 125.67271617 40.78663854 141.52783203 55.96362305 C142.77231904 57.14903224 144.03604635 58.31417422 145.30273438 59.47583008 C172.08146944 84.79124628 188.87441527 121.66686242 195.94726562 157.31567383 C196.13345459 158.15727051 196.31964355 158.99886719 196.51147461 159.8659668 C198.33564711 169.02981782 198.28473074 178.18821153 198.26293945 187.49389648 C198.25980288 190.28255218 198.28322562 193.07011904 198.30859375 195.85864258 C198.37129985 212.90387538 196.52164798 229.24623329 191.19726562 245.50317383 C190.84583496 246.60338867 190.4944043 247.70360352 190.13232422 248.8371582 C174.13684066 298.05624866 140.0426616 339.32176525 93.94726562 363.31567383 C63.94848935 378.26119345 33.19125295 384.37762758 -0.11523438 384.62817383 C-0.87387787 384.63789215 -1.63252136 384.64761047 -2.41415405 384.65762329 C-13.61888757 384.77920158 -24.08981573 383.61120791 -35.05273438 381.31567383 C-36.22143066 381.07196045 -37.39012695 380.82824707 -38.59423828 380.57714844 C-73.75375142 373.01312378 -106.07374515 356.31432384 -132.05273438 331.31567383 C-132.79620117 330.61087891 -132.79620117 330.61087891 -133.5546875 329.8918457 C-160.27929995 304.46612086 -177.58142583 272.77467148 -187.05273438 237.31567383 C-187.22514648 236.67726563 -187.39755859 236.03885742 -187.57519531 235.38110352 C-196.33541447 201.82529261 -193.45829629 166.02639028 -183.05273438 133.31567383 C-182.83278809 132.58960938 -182.6128418 131.86354492 -182.38623047 131.11547852 C-175.15094142 107.2874827 -161.78826514 85.72603875 -145.46289062 67.08520508 C-143.87129569 65.25628967 -142.33485894 63.37770111 -140.86132812 61.45239258 C-140.26449219 60.74727539 -139.66765625 60.0421582 -139.05273438 59.31567383 C-138.39273438 59.31567383 -137.73273438 59.31567383 -137.05273438 59.31567383 C-136.79234375 58.72012695 -136.53195313 58.12458008 -136.26367188 57.51098633 C-134.96506812 55.1567434 -133.72794281 53.91215686 -131.67773438 52.19067383 C-130.95972656 51.58610352 -130.24171875 50.9815332 -129.50195312 50.35864258 C-128.69371094 49.68446289 -127.88546875 49.0102832 -127.05273438 48.31567383 C-126.17230469 47.54868164 -125.291875 46.78168945 -124.38476562 45.99145508 C-89.66180216 16.14188999 -45.66023861 -0.11175004 0 0 Z " fill="#FDFDFD" transform="translate(274.052734375,85.684326171875)"/>
<path d="M0 0 C2.50037734 2.17424117 3.43628586 3.73045798 4 7 C5.98 7 7.96 7 10 7 C9.25339288 12.72398793 8.17122859 18.34853777 7 24 C8.65 24.33 10.3 24.66 12 25 C14.64 20.71 17.28 16.42 20 12 C20.99 12.66 21.98 13.32 23 14 C25.28648848 14.24107326 25.28648848 14.24107326 27.6875 14.125 C28.49574219 14.10695312 29.30398438 14.08890625 30.13671875 14.0703125 C31.05904297 14.03550781 31.05904297 14.03550781 32 14 C31.96519531 14.60328125 31.93039062 15.2065625 31.89453125 15.828125 C31.85392578 17.02695313 31.85392578 17.02695313 31.8125 18.25 C31.77769531 19.03890625 31.74289062 19.8278125 31.70703125 20.640625 C31.86493872 23.50998292 31.86493872 23.50998292 35 27 C30.38 29.64 25.76 32.28 21 35 C21 36.98 21 38.96 21 41 C21.95261719 40.71125 22.90523437 40.4225 23.88671875 40.125 C25.14097656 39.75375 26.39523437 39.3825 27.6875 39 C28.92886719 38.62875 30.17023438 38.2575 31.44921875 37.875 C34.5010019 37.12296543 36.88898362 36.80965101 40 37 C40 38.98 40 40.96 40 43 C40.78375 43.309375 41.5675 43.61875 42.375 43.9375 C45 45 45 45 47 46 C50.05053097 46.12303073 53.07966737 46.18580323 56.13134766 46.20532227 C57.07773605 46.21522186 58.02412445 46.22512146 58.99919128 46.23532104 C62.13745596 46.26699022 65.27573579 46.29171488 68.4140625 46.31640625 C70.58597209 46.3369711 72.75787764 46.35796744 74.92977905 46.37937927 C80.65410085 46.43464839 86.37845905 46.48403631 92.10284424 46.53222656 C97.94099173 46.58240628 103.77908617 46.63811074 109.6171875 46.69335938 C121.07807971 46.80100014 132.53901793 46.90243194 144 47 C144.30428615 64.93292034 144.53321534 82.86516687 144.67355824 100.80011463 C144.74046812 109.12860955 144.83160633 117.45549656 144.98071289 125.78295898 C145.11068254 133.04513255 145.19424678 140.30614147 145.22315043 147.56944579 C145.24003737 151.41267691 145.2794247 155.25257783 145.37449074 159.0947361 C145.97585698 184.3539067 145.97585698 184.3539067 141.15190125 190.28222656 C138.07935544 193.22005717 134.78185035 195.09575614 131 197 C129.71561797 197.97204283 128.45192509 198.97341422 127.23046875 200.0234375 C126.22628906 200.79945313 125.22210938 201.57546875 124.1875 202.375 C119.07146833 206.35284529 114.01943376 210.40097671 109 214.5 C103.98048645 218.59908845 98.92609039 222.64394977 93.8125 226.625 C88.72632888 230.58854777 83.78365599 234.68990529 78.88500977 238.88208008 C74.52325347 242.59808865 70.04320204 246.1403162 65.52050781 249.6574707 C60.6970395 253.42139888 55.96514398 257.28899737 51.25 261.1875 C41.20515695 269.48570628 41.20515695 269.48570628 37.25 272.6875 C36.53328125 273.26886719 35.8165625 273.85023438 35.078125 274.44921875 C32.80751936 276.14363687 30.43657669 277.55758074 28 279 C27.60455923 268.3867643 27.30330872 257.77530242 27.11919308 247.15617752 C27.03077619 242.22368954 26.91110927 237.29626915 26.7175293 232.36669922 C26.53155612 227.60051402 26.43093762 222.83916846 26.38708687 218.06963348 C26.35588486 216.25898734 26.29493418 214.44858121 26.20258904 212.64002228 C25.5299583 198.90917536 25.5299583 198.90917536 29.6531601 194.05293465 C35.961157 188.40909713 43.36450913 184.71010903 50.9921875 181.18359375 C53.62639232 179.34277703 54.77155348 177.9714567 55.51135254 174.82550049 C56.42585466 167.92354525 56.24857246 161.00759181 56.125 154.0625 C56.12305709 151.92643159 56.12561323 149.79035404 56.1328125 147.65429688 C56.14062088 142.43496569 56.09212482 137.21847302 56 132 C43.18610347 140.94084087 43.18610347 140.94084087 30.6875 150.3125 C29.29196257 151.38449991 27.89611439 152.45609536 26.5 153.52734375 C24.11795256 155.36145613 21.74129579 157.2018604 19.37109375 159.05126953 C16.65180286 161.17051775 13.92049877 163.27347365 11.1875 165.375 C10.33309326 166.04829346 9.47868652 166.72158691 8.59838867 167.4152832 C7.39533081 168.33506958 7.39533081 168.33506958 6.16796875 169.2734375 C5.45922607 169.82435059 4.7504834 170.37526367 4.02026367 170.94287109 C2 172 2 172 -0.01586914 171.8371582 C-2.24400561 170.89704747 -3.97387309 169.77782499 -5.9140625 168.33203125 C-6.6659082 167.77555908 -7.41775391 167.21908691 -8.19238281 166.64575195 C-8.99514648 166.04077881 -9.79791016 165.43580566 -10.625 164.8125 C-11.46385742 164.18754639 -12.30271484 163.56259277 -13.16699219 162.91870117 C-19.59319499 158.11108767 -25.94890977 153.21283559 -32.24462891 148.2355957 C-39.35725157 142.63605935 -46.68490241 137.33017169 -54 132 C-54.42365922 138.18810846 -54.73007278 144.36764071 -54.93383789 150.56689453 C-55.01880468 152.6689761 -55.13444938 154.77006807 -55.2824707 156.86865234 C-56.41645057 168.51450714 -56.41645057 168.51450714 -52.45379639 179.05444336 C-49.20046282 182.08529594 -45.65011099 184.29688479 -41.75561523 186.41113281 C-41.00471115 186.82383423 -40.25380707 187.23653564 -39.48014832 187.66174316 C-37.68146163 188.63229188 -35.85488861 189.55171767 -34.0136261 190.43884277 C-30.6499524 192.35714048 -28.43029125 193.97020064 -26 197 C-24.47374625 203.18424856 -24.71390838 209.1702144 -24.92578125 215.5 C-24.94632056 217.30455772 -24.96196783 219.10917715 -24.97294617 220.91381836 C-25.01477171 225.64357516 -25.1226525 230.36956303 -25.24468994 235.09783936 C-25.35760902 239.93059297 -25.40753815 244.7639612 -25.46289062 249.59765625 C-25.58055066 259.06675228 -25.76806001 268.53306172 -26 278 C-28.64882375 276.69814767 -31.06896213 275.34639082 -33.4765625 273.63671875 C-34.46825439 272.93506592 -34.46825439 272.93506592 -35.47998047 272.21923828 C-36.18783691 271.71376465 -36.89569336 271.20829102 -37.625 270.6875 C-38.74672607 269.89061768 -38.74672607 269.89061768 -39.89111328 269.07763672 C-42.26374696 267.38925497 -44.63257687 265.69567899 -47 264 C-48.1127832 263.20311768 -48.1127832 263.20311768 -49.24804688 262.39013672 C-58.61121084 255.67461677 -67.90581743 248.86926482 -77.1730957 242.0222168 C-82.88491391 237.8073457 -88.64000299 233.65931543 -94.42578125 229.546875 C-98.54889631 226.61457226 -102.64960633 223.65145497 -106.75 220.6875 C-107.50224854 220.14391846 -108.25449707 219.60033691 -109.02954102 219.0402832 C-112.95320828 216.20432401 -116.87540548 213.36634091 -120.796875 210.52734375 C-121.58481445 209.95733643 -122.37275391 209.3873291 -123.18457031 208.80004883 C-124.66877533 207.72633198 -126.15253975 206.65200566 -127.63574219 205.5769043 C-128.32313477 205.079729 -129.01052734 204.58255371 -129.71875 204.0703125 C-130.68203185 203.35038919 -130.68203185 203.35038919 -131.66477394 202.61592197 C-133.97571077 200.9436427 -133.97571077 200.9436427 -136.56567955 199.67125607 C-140.67550423 197.37479965 -143.49767614 195.65400044 -144.90568924 191.01783943 C-145.23270089 187.22805057 -145.23889786 183.50689275 -145.13525391 179.71118164 C-145.13243023 178.26189368 -145.13402226 176.81259144 -145.13967896 175.36331177 C-145.14254024 171.44316509 -145.08389477 167.52609845 -145.01393938 163.60666585 C-144.95128405 159.50555132 -144.94554122 155.40436047 -144.9336853 151.30284119 C-144.90264441 143.5427571 -144.82064206 135.78408739 -144.72019041 128.02462524 C-144.60828657 119.18807205 -144.55340209 110.3514501 -144.50323606 101.51436436 C-144.39880257 83.34210866 -144.22299331 65.17116817 -144 47 C-142.1938195 46.99120064 -142.1938195 46.99120064 -140.35115051 46.98222351 C-129.00642845 46.92502394 -117.66189858 46.85227665 -106.31737232 46.76428509 C-100.4849517 46.71954737 -94.65260149 46.6802986 -88.82006836 46.65356445 C-83.19191331 46.62756564 -77.56402871 46.58718714 -71.93604088 46.53681374 C-69.78827972 46.52012192 -67.64047177 46.50862209 -65.4926548 46.50238609 C-62.4854557 46.49277036 -59.47895212 46.46474073 -56.47192383 46.43237305 C-55.13835594 46.43452568 -55.13835594 46.43452568 -53.77784729 46.4367218 C-48.94384876 46.36308149 -46.03506939 45.92353626 -42 43 C-41.34 43 -40.68 43 -40 43 C-40 41.02 -40 39.04 -40 37 C-33.8887076 38.0388092 -27.92295536 39.15730278 -22 41 C-21.01 38.03 -21.01 38.03 -20 35 C-20.70511719 34.73445313 -21.41023438 34.46890625 -22.13671875 34.1953125 C-25.15567786 32.93501033 -27.95185076 31.46042006 -30.8125 29.875 C-31.78832031 29.33617187 -32.76414062 28.79734375 -33.76953125 28.2421875 C-34.50558594 27.83226562 -35.24164063 27.42234375 -36 27 C-35.319375 26.34 -34.63875 25.68 -33.9375 25 C-31.23797743 20.82009408 -32.0280147 18.77892774 -33 14 C-32.39671875 14.02320313 -31.7934375 14.04640625 -31.171875 14.0703125 C-30.37265625 14.08835938 -29.5734375 14.10640625 -28.75 14.125 C-27.56664062 14.15980469 -27.56664062 14.15980469 -26.359375 14.1953125 C-23.61010274 14.11496763 -23.61010274 14.11496763 -20 12 C-17.36 16.29 -14.72 20.58 -12 25 C-9.525 24.01 -9.525 24.01 -7 23 C-7.433125 21.64455078 -7.433125 21.64455078 -7.875 20.26171875 C-8.24625 19.08222656 -8.6175 17.90273437 -9 16.6875 C-9.37125 15.51574219 -9.7425 14.34398437 -10.125 13.13671875 C-11 10 -11 10 -11 7 C-8.36 7 -5.72 7 -3 7 C-2.690625 6.030625 -2.38125 5.06125 -2.0625 4.0625 C-1 1 -1 1 0 0 Z " fill="#CE1126" transform="translate(274,162)"/>
<path d="M0 0 C12.67395348 -0.06952392 25.34786156 -0.12282357 38.02196693 -0.15543652 C43.90712853 -0.17108943 49.79215961 -0.19232117 55.67724609 -0.22631836 C61.35714373 -0.2589247 67.03691586 -0.27685583 72.71689987 -0.28463173 C74.88342642 -0.29017291 77.04994613 -0.30099345 79.21641922 -0.31719017 C82.25201489 -0.33898105 85.28709255 -0.34196619 88.32275391 -0.34057617 C89.21755463 -0.351362 90.11235535 -0.36214783 91.03427124 -0.3732605 C96.12978792 -0.34802876 99.54036873 0.2467452 104 3 C104 5.31 104 7.62 104 10 C109.61 8.68 115.22 7.36 121 6 C121.495 9.465 121.495 9.465 122 13 C118.04 15.31 114.08 17.62 110 20 C110.99 21.98 110.99 21.98 112 24 C111.7578125 26.359375 111.7578125 26.359375 111.125 28.75 C110.92132813 29.54921875 110.71765625 30.3484375 110.5078125 31.171875 C110.34023437 31.77515625 110.17265625 32.3784375 110 33 C110.59167969 32.80921875 111.18335938 32.6184375 111.79296875 32.421875 C114.23330044 31.73714898 116.47027756 31.19459403 119 31 C122.0625 32.875 122.0625 32.875 124 35 C124.268125 34.29875 124.53625 33.5975 124.8125 32.875 C126.0681449 29.8350176 127.50235123 26.9272226 129 24 C131.76276177 24.52268466 134.3260876 25.10869587 137 26 C136.68872484 27.58357459 136.37592711 29.16684993 136.0625 30.75 C135.88847656 31.63171875 135.71445312 32.5134375 135.53515625 33.421875 C135.07631512 35.63235053 134.56663926 37.81512068 134 40 C136.31 40 138.62 40 141 40 C144.36005524 45.379616 144.3672647 49.75378149 144.1875 55.875 C144.17396484 56.75414062 144.16042969 57.63328125 144.14648438 58.5390625 C144.11136623 60.69297552 144.05756694 62.84657004 144 65 C143.08093872 65.18937134 143.08093872 65.18937134 142.14331055 65.38256836 C141.33676025 65.55409424 140.53020996 65.72562012 139.69921875 65.90234375 C138.90088623 66.06984131 138.10255371 66.23733887 137.2800293 66.40991211 C131.11187 68.00627585 127.4169918 72.14974533 124.13671875 77.3671875 C121.61165845 83.21560894 121.94699802 90.03203682 124.25 95.9375 C127.80868452 102.16519791 131.25108783 105.55021694 138 108 C140.97 108.495 140.97 108.495 144 109 C144 114.28 144 119.56 144 125 C138.97656524 121.65104349 134.1040655 118.20581904 129.25 114.625 C128.42306641 114.01575684 127.59613281 113.40651367 126.74414062 112.77880859 C120.21522561 107.94656872 113.78070522 103.00151341 107.40332031 97.97119141 C101.71114211 93.49490997 95.87666403 89.23049007 90 85 C89.57634078 91.18810846 89.26992722 97.36764071 89.06616211 103.56689453 C88.98119532 105.6689761 88.86555062 107.77006807 88.7175293 109.86865234 C87.58354943 121.51450714 87.58354943 121.51450714 91.54620361 132.05444336 C94.79953718 135.08529594 98.34988901 137.29688479 102.24438477 139.41113281 C102.99528885 139.82383423 103.74619293 140.23653564 104.51985168 140.66174316 C106.31853837 141.63229188 108.14511139 142.55171767 109.9863739 143.43884277 C113.3500476 145.35714048 115.56970875 146.97020064 118 150 C119.52625375 156.18424856 119.28609162 162.1702144 119.07421875 168.5 C119.05367944 170.30455772 119.03803217 172.10917715 119.02705383 173.91381836 C118.98522829 178.64357516 118.8773475 183.36956303 118.75531006 188.09783936 C118.64239098 192.93059297 118.59246185 197.7639612 118.53710938 202.59765625 C118.41944934 212.06675228 118.23193999 221.53306172 118 231 C115.35117625 229.69814767 112.93103787 228.34639082 110.5234375 226.63671875 C109.53174561 225.93506592 109.53174561 225.93506592 108.52001953 225.21923828 C107.81216309 224.71376465 107.10430664 224.20829102 106.375 223.6875 C105.25327393 222.89061768 105.25327393 222.89061768 104.10888672 222.07763672 C101.73625304 220.38925497 99.36742313 218.69567899 97 217 C95.8872168 216.20311768 95.8872168 216.20311768 94.75195312 215.39013672 C85.38878916 208.67461677 76.09418257 201.86926482 66.8269043 195.0222168 C61.11508609 190.8073457 55.35999701 186.65931543 49.57421875 182.546875 C45.45110369 179.61457226 41.35039367 176.65145497 37.25 173.6875 C36.49775146 173.14391846 35.74550293 172.60033691 34.97045898 172.0402832 C31.04679172 169.20432401 27.12459452 166.36634091 23.203125 163.52734375 C22.41518555 162.95733643 21.62724609 162.3873291 20.81542969 161.80004883 C19.33122467 160.72633198 17.84746025 159.65200566 16.36425781 158.5769043 C15.67686523 158.079729 14.98947266 157.58255371 14.28125 157.0703125 C13.31796815 156.35038919 13.31796815 156.35038919 12.33522606 155.61592197 C10.02428923 153.9436427 10.02428923 153.9436427 7.43432045 152.67125607 C3.32449577 150.37479965 0.50232386 148.65400044 -0.90568924 144.01783943 C-1.23270089 140.22805057 -1.23889786 136.50689275 -1.13525391 132.71118164 C-1.13243023 131.26189368 -1.13402226 129.81259144 -1.13967896 128.36331177 C-1.14254024 124.44316509 -1.08389477 120.52609845 -1.01393938 116.60666585 C-0.95128405 112.50555132 -0.94554122 108.40436047 -0.9336853 104.30284119 C-0.90264441 96.5427571 -0.82064206 88.78408739 -0.72019041 81.02462524 C-0.60828657 72.18807205 -0.55340209 63.3514501 -0.50323606 54.51436436 C-0.39880257 36.34210866 -0.22299331 18.17116817 0 0 Z " fill="#0138A8" transform="translate(130,209)"/>
<path d="M0 0 C0.98822754 0.00248749 1.97645508 0.00497498 2.99462891 0.00753784 C63.41728358 0.24223036 123.88573555 19.736939 171 58.3125 C171.52754883 58.74385254 172.05509766 59.17520508 172.59863281 59.61962891 C192.05173992 75.60105073 209.10840558 92.97355924 224 113.3125 C224.65355469 114.19164063 225.30710937 115.07078125 225.98046875 115.9765625 C266.40384595 171.85876091 284.29079594 244.8969449 274.40844727 313.23144531 C273.97213406 315.93217802 273.49417188 318.62179248 273 321.3125 C272.75056641 322.74239258 272.75056641 322.74239258 272.49609375 324.20117188 C264.42913751 369.64502537 245.51832979 412.71160528 216 448.3125 C215.35160156 449.13363281 214.70320313 449.95476562 214.03515625 450.80078125 C190.96567298 479.79873508 161.86268299 503.23813349 129 520.3125 C128.10990234 520.7765625 127.21980469 521.240625 126.30273438 521.71875 C87.41412897 541.74990289 45.09531374 551.53168923 1.4375 551.5625 C0.57550995 551.56317474 -0.2864801 551.56384949 -1.17459106 551.56454468 C-15.9517647 551.54625419 -30.40329091 550.77068936 -45 548.3125 C-46.48330811 548.06306641 -46.48330811 548.06306641 -47.99658203 547.80859375 C-71.60430497 543.66890536 -94.30621911 536.47345724 -116 526.3125 C-116.70769531 525.98282227 -117.41539062 525.65314453 -118.14453125 525.31347656 C-133.50855585 518.07945924 -148.57356356 509.73962755 -162 499.3125 C-163.05574219 498.52101563 -164.11148438 497.72953125 -165.19921875 496.9140625 C-171.30089705 492.32469001 -177.12587657 487.56099012 -182.74609375 482.3828125 C-184.75303483 480.53934843 -186.79912242 478.76470907 -188.875 477 C-198.15486332 468.882463 -206.42486416 460.03280706 -214 450.3125 C-214.80050781 449.30574219 -215.60101563 448.29898437 -216.42578125 447.26171875 C-251.43754749 402.90846288 -274.91786008 346.12180975 -275.203125 289.1171875 C-275.21364647 287.70382111 -275.21364647 287.70382111 -275.22438049 286.26190186 C-275.24179098 283.23705207 -275.24823302 280.21239806 -275.25 277.1875 C-275.25101212 275.63733185 -275.25101212 275.63733185 -275.25204468 274.05584717 C-275.23631802 258.91268829 -274.8176241 244.2307888 -272 229.3125 C-271.82839355 228.34908691 -271.65678711 227.38567383 -271.47998047 226.39306641 C-260.0359099 162.93421218 -225.63431789 100.94681041 -174 61.3125 C-172.73754054 60.31082869 -171.47588173 59.30814778 -170.21484375 58.3046875 C-121.57238893 19.9432569 -61.75259371 -0.24914929 0 0 Z M-48 14.3125 C-49.76904716 14.59476503 -51.54016888 14.86414796 -53.3125 15.125 C-77.24508769 19.03358844 -99.45955754 28.31542142 -120.93457031 39.26123047 C-122.26531337 39.93855666 -123.59786835 40.6123405 -124.93261719 41.28173828 C-143.5733164 50.65070734 -160.43146429 63.15529313 -175.765625 77.26171875 C-177.85166886 79.17635691 -179.97682046 81.03072958 -182.125 82.875 C-188.96765967 88.85028027 -195.14228008 95.37836146 -201 102.3125 C-201.66515625 103.08851562 -202.3303125 103.86453125 -203.015625 104.6640625 C-221.81491588 127.04739085 -236.14445111 152.13024844 -247 179.1875 C-247.34289062 180.03441406 -247.68578125 180.88132813 -248.0390625 181.75390625 C-251.57500568 190.56677226 -254.38301657 199.28883661 -256.4375 208.5625 C-256.64922852 209.50834961 -256.86095703 210.45419922 -257.07910156 211.42871094 C-258.55895512 218.12244136 -259.945961 224.83236872 -261.25 231.5625 C-261.41298584 232.39426758 -261.57597168 233.22603516 -261.74389648 234.08300781 C-263.4621288 243.18479772 -264.15442494 252.1659458 -264.1328125 261.421875 C-264.13376923 262.35114807 -264.13472595 263.28042114 -264.13571167 264.237854 C-264.1363874 266.19079659 -264.13457583 268.14374151 -264.13037109 270.09667969 C-264.12503881 273.04106864 -264.13032433 275.98530336 -264.13671875 278.9296875 C-264.14621768 295.27604977 -263.04323701 310.83883352 -259.875 326.875 C-259.72138 327.66320129 -259.56776001 328.45140259 -259.40948486 329.26348877 C-257.05451924 341.25508178 -254.12465092 352.79503302 -249.77587891 364.23876953 C-249.04687612 366.18721185 -248.37701887 368.14399239 -247.73046875 370.12109375 C-244.66474918 379.31825247 -240.54282254 387.77637414 -236 396.3125 C-235.61150879 397.04549316 -235.22301758 397.77848633 -234.82275391 398.53369141 C-223.79389839 419.2066733 -210.47787611 437.73357798 -195 455.3125 C-194.31623291 456.09318848 -194.31623291 456.09318848 -193.61865234 456.88964844 C-189.01837412 462.12532421 -184.37293307 467.10664546 -179.03125 471.58984375 C-176.78697288 473.49316339 -174.65298903 475.49413188 -172.5 477.5 C-155.37699356 492.87682466 -135.55522517 505.0969953 -115 515.3125 C-114.33983887 515.64121094 -113.67967773 515.96992187 -112.99951172 516.30859375 C-105.85557981 519.83191942 -98.71497199 522.97447412 -91.07421875 525.29296875 C-88.42006588 526.17318971 -85.89355138 527.16912264 -83.3125 528.23828125 C-78.07117635 530.35499778 -72.78345125 531.90943493 -67.3125 533.3125 C-65.83668457 533.69378052 -65.83668457 533.69378052 -64.33105469 534.08276367 C-42.99711749 539.43994482 -22.1797451 541.54656541 -0.25 541.5625 C0.70986816 541.56350708 1.66973633 541.56451416 2.65869141 541.56555176 C16.982201 541.55538391 30.90012613 541.03205163 45 538.3125 C45.80083008 538.16796387 46.60166016 538.02342773 47.42675781 537.87451172 C91.03430678 529.94506816 131.18939538 511.62908636 166 484.3125 C166.96035156 483.56613281 167.92070312 482.81976563 168.91015625 482.05078125 C184.58469233 469.56193881 198.89552324 455.29469409 211 439.3125 C211.46100098 438.70760742 211.92200195 438.10271484 212.39697266 437.47949219 C225.16947192 420.61538744 236.15552075 402.81549858 244.21386719 383.22265625 C244.92031394 381.50612228 245.65011276 379.79924318 246.3828125 378.09375 C247.62771335 375.18115178 248.8190296 372.25154932 250 369.3125 C250.47050781 368.18714844 250.94101562 367.06179688 251.42578125 365.90234375 C258.58411888 348.28253709 262.54666644 329.13640827 265 310.3125 C265.10296387 309.52552734 265.20592773 308.73855469 265.31201172 307.92773438 C272.04178201 254.04704581 262.10036758 198.0147876 236 150.3125 C235.60232422 149.57902344 235.20464844 148.84554687 234.79492188 148.08984375 C219.27456219 119.70298741 198.14958888 92.73195425 172.74609375 72.5078125 C171.00532668 71.11618933 169.28589272 69.69709047 167.59765625 68.2421875 C154.40901373 56.94954256 139.29869986 47.46825288 124 39.3125 C123.39978027 38.98588379 122.79956055 38.65926758 122.18115234 38.32275391 C111.19110787 32.37443141 99.86541372 28.17230747 88 24.3125 C87.06188477 24.00393066 86.12376953 23.69536133 85.15722656 23.37744141 C82.2740188 22.43110056 79.38797283 21.49419204 76.5 20.5625 C75.19361572 20.13988892 75.19361572 20.13988892 73.86083984 19.70874023 C49.35272176 11.93600659 25.24341783 9.92675088 -0.3125 9.9375 C-1.36585541 9.93577789 -2.41921082 9.93405579 -3.50448608 9.93228149 C-18.62292017 9.9350778 -33.3175021 10.39716723 -48 14.3125 Z " fill="#131313" transform="translate(275,-0.3125)"/>
<path d="M0 0 C0.97804596 0.00087616 1.95609192 0.00175232 2.96377563 0.00265503 C17.53898108 0.04575179 31.39483471 0.70141636 45.5625 4.375 C47.05305908 4.73706543 47.05305908 4.73706543 48.57373047 5.10644531 C102.42330002 18.28496087 147.83735457 51.94214557 176.70849609 99.25292969 C188.39876244 118.78616247 196.15126513 140.07945632 200.5625 162.375 C200.80806641 163.56996094 200.80806641 163.56996094 201.05859375 164.7890625 C210.61400442 212.64508617 199.34029472 265.70302774 172.37060547 306.16308594 C157.06024375 328.5752059 139.01659748 348.05117303 116.5625 363.375 C115.62929932 364.01284424 115.62929932 364.01284424 114.67724609 364.66357422 C71.83888474 393.5370072 15.61424996 405.99606006 -35.4375 396.375 C-39.49360693 395.53976563 -43.45227755 394.49691085 -47.4375 393.375 C-48.78195742 393.03151806 -50.12705778 392.69054679 -51.47265625 392.3515625 C-85.73477021 383.5419584 -115.31102417 366.1053037 -140.85888672 341.87011719 C-142.3155568 340.49049337 -143.78420916 339.12355043 -145.25390625 337.7578125 C-169.24856066 314.77603288 -186.43456282 283.3489618 -195.1875 251.5 C-195.46924072 250.48574951 -195.75098145 249.47149902 -196.04125977 248.42651367 C-200.19057493 232.67248897 -201.92830018 217.23884696 -201.77368164 200.97387695 C-201.74973232 198.28241717 -201.7532003 195.59193271 -201.75976562 192.90039062 C-201.74607884 184.49099796 -201.56247368 176.55887299 -199.4375 168.375 C-199.17687545 167.02568659 -198.92779956 165.67408133 -198.69140625 164.3203125 C-191.93825944 127.00631486 -175.17978506 89.52735109 -147.21875 63.0859375 C-145.29055361 61.31325341 -145.29055361 61.31325341 -143.375 58.75 C-140.44509229 55.15850022 -136.99662981 52.33106999 -133.4375 49.375 C-132.64158447 48.71056885 -132.64158447 48.71056885 -131.82958984 48.03271484 C-123.08603829 40.76790581 -114.12698342 34.31025553 -104.4375 28.375 C-103.25220703 27.59769531 -103.25220703 27.59769531 -102.04296875 26.8046875 C-85.36321992 16.11328982 -64.1942968 7.5480805 -44.55859375 4.69921875 C-42.20979026 4.39121639 -42.20979026 4.39121639 -39.125 3.375 C-26.2963435 -0.1039577 -13.18821119 -0.02881498 0 0 Z M-131.26953125 57.3984375 C-133.15184468 59.1145647 -135.07181566 60.72552088 -137.0625 62.3125 C-137.84625 62.993125 -138.63 63.67375 -139.4375 64.375 C-139.4375 65.035 -139.4375 65.695 -139.4375 66.375 C-140.4275 66.705 -141.4175 67.035 -142.4375 67.375 C-144.51624398 69.58111628 -144.51624398 69.58111628 -146.625 72.3125 C-147.82769531 73.82650391 -147.82769531 73.82650391 -149.0546875 75.37109375 C-149.84101563 76.36238281 -150.62734375 77.35367188 -151.4375 78.375 C-152.40042969 79.50615234 -152.40042969 79.50615234 -153.3828125 80.66015625 C-169.42159574 99.68524013 -180.43054129 122.63517465 -187.4375 146.375 C-187.81519531 147.60089844 -188.19289063 148.82679688 -188.58203125 150.08984375 C-201.85836657 195.88574199 -194.41512473 246.78687276 -172.66796875 288.79296875 C-147.01398054 335.03284567 -105.24496203 369.57886215 -54.390625 384.61328125 C-40.6839958 388.35802488 -26.67520367 391.5177479 -12.4140625 391.54296875 C-11.67495132 391.54724884 -10.93584015 391.55152893 -10.17433167 391.55593872 C-7.80365827 391.56586104 -5.43319007 391.5660045 -3.0625 391.5625 C-2.25148834 391.56156342 -1.44047668 391.56062683 -0.60488892 391.55966187 C10.88568636 391.53080643 22.22971221 391.46910209 33.5625 389.375 C34.44615234 389.21370605 35.32980469 389.05241211 36.24023438 388.88623047 C49.10756649 386.46223306 61.39709953 383.21401373 73.5625 378.375 C75.30660156 377.70017578 75.30660156 377.70017578 77.0859375 377.01171875 C92.39804338 370.79227071 106.43939933 362.37040077 119.5625 352.375 C120.43003906 351.72015625 121.29757812 351.0653125 122.19140625 350.390625 C155.1241406 324.80564358 176.72318808 290.66363574 189.25 251.1875 C189.53560791 250.31665771 189.82121582 249.44581543 190.11547852 248.54858398 C194.92200296 232.88761838 196.06735391 216.77455682 195.95361328 200.48339844 C195.9374625 197.74363795 195.95361687 195.00534281 195.97265625 192.265625 C195.99126386 177.22377394 194.25467772 162.72575588 190 148.25 C189.75024414 147.39438477 189.50048828 146.53876953 189.24316406 145.65722656 C177.24463135 106.22536226 153.22446241 71.25279581 120.15576172 46.57128906 C118.74612504 45.51287353 117.35765789 44.42639128 115.97265625 43.3359375 C103.28377208 33.59376102 88.75317772 25.41605453 73.5625 20.375 C72.22703928 19.85964595 70.89345082 19.33939187 69.5625 18.8125 C61.43190406 15.79740401 53.07506138 13.43237261 44.6875 11.25 C43.49382812 10.93804687 42.30015625 10.62609375 41.0703125 10.3046875 C28.61144661 7.55130619 16.28680028 7.02838301 3.58520508 7.05932617 C0.89557898 7.0624759 -1.79293138 7.03896335 -4.48242188 7.01367188 C-51.41599623 6.84391954 -96.90656212 25.67014952 -131.26953125 57.3984375 Z " fill="#0D0D0D" transform="translate(276.4375,78.625)"/>
<path d="M0 0 C2.50037734 2.17424117 3.43628586 3.73045798 4 7 C5.98 7 7.96 7 10 7 C9.25339288 12.72398793 8.17122859 18.34853777 7 24 C8.65 24.33 10.3 24.66 12 25 C14.64 20.71 17.28 16.42 20 12 C20.99 12.66 21.98 13.32 23 14 C25.28648848 14.24107326 25.28648848 14.24107326 27.6875 14.125 C28.49574219 14.10695312 29.30398438 14.08890625 30.13671875 14.0703125 C30.75160156 14.04710937 31.36648438 14.02390625 32 14 C31.96519531 14.60328125 31.93039062 15.2065625 31.89453125 15.828125 C31.85392578 17.02695313 31.85392578 17.02695313 31.8125 18.25 C31.77769531 19.03890625 31.74289062 19.8278125 31.70703125 20.640625 C31.86493872 23.50998292 31.86493872 23.50998292 35 27 C28.07 30.96 28.07 30.96 21 35 C21 36.98 21 38.96 21 41 C21.95261719 40.71125 22.90523438 40.4225 23.88671875 40.125 C25.14097656 39.75375 26.39523437 39.3825 27.6875 39 C28.92886719 38.62875 30.17023438 38.2575 31.44921875 37.875 C34.5010019 37.12296543 36.88898362 36.80965101 40 37 C40 38.98 40 40.96 40 43 C41.175625 43.433125 41.175625 43.433125 42.375 43.875 C45 45 45 45 47 47 C45.5459375 47.495 45.5459375 47.495 44.0625 48 C40.87590235 49.59434664 40.87590235 49.59434664 40.48217773 51.9453125 C40.42489502 52.66460937 40.3676123 53.38390625 40.30859375 54.125 C40.20675781 55.40375 40.10492188 56.6825 40 58 C37.37426939 57.35702496 34.74942697 56.71075589 32.125 56.0625 C31.37863281 55.88009766 30.63226563 55.69769531 29.86328125 55.50976562 C24.2265625 54.11328125 24.2265625 54.11328125 22 53 C21.67 55.31 21.34 57.62 21 60 C21.825 60.226875 22.65 60.45375 23.5 60.6875 C27.73136618 62.27426232 31.25171013 64.50748237 35 67 C34.67257812 67.56203125 34.34515625 68.1240625 34.0078125 68.703125 C32.88214506 71.26859964 32.7931889 72.96842277 32.875 75.75 C32.89304687 76.54921875 32.91109375 77.3484375 32.9296875 78.171875 C32.95289063 78.77515625 32.97609375 79.3784375 33 80 C31.741875 79.773125 30.48375 79.54625 29.1875 79.3125 C25.85861291 78.79806803 25.85861291 78.79806803 23 80.4375 C22.67 80.953125 22.34 81.46875 22 82 C18.30209954 80.76736651 18.0645154 79.79947549 16.3125 76.4375 C15.87550781 75.61121094 15.43851562 74.78492188 14.98828125 73.93359375 C14.66214844 73.29550781 14.33601563 72.65742188 14 72 C10.535 72.495 10.535 72.495 7 73 C7.2165625 73.67546875 7.433125 74.3509375 7.65625 75.046875 C7.9346875 75.93890625 8.213125 76.8309375 8.5 77.75 C8.7784375 78.63171875 9.056875 79.5134375 9.34375 80.421875 C10 83 10 83 10 87 C8.02 87 6.04 87 4 87 C3.34 88.98 2.68 90.96 2 93 C1.01 93 0.02 93 -1 93 C-1.66 91.02 -2.32 89.04 -3 87 C-5.31 87 -7.62 87 -10 87 C-9.58846263 82.02906176 -9.20399168 77.55491614 -7 73 C-7.763125 72.855625 -8.52625 72.71125 -9.3125 72.5625 C-12 72 -12 72 -15 71 C-15.4021875 72.3303125 -15.4021875 72.3303125 -15.8125 73.6875 C-16.91710819 76.76877548 -18.22849144 79.26221405 -20 82 C-20.86625 81.5359375 -20.86625 81.5359375 -21.75 81.0625 C-26.24865088 78.93813708 -29.08971634 78.9956238 -34 80 C-33.90460938 79.39671875 -33.80921875 78.7934375 -33.7109375 78.171875 C-33.60007813 77.37265625 -33.48921875 76.5734375 -33.375 75.75 C-33.25898438 74.96109375 -33.14296875 74.1721875 -33.0234375 73.359375 C-32.99680605 70.67847541 -33.63407916 69.27305911 -35 67 C-33.21190303 65.82786955 -31.41940875 64.66244474 -29.625 63.5 C-28.12839844 62.52546875 -28.12839844 62.52546875 -26.6015625 61.53125 C-24 60 -24 60 -22 60 C-22.33 57.69 -22.66 55.38 -23 53 C-23.89203125 53.28875 -24.7840625 53.5775 -25.703125 53.875 C-26.87359375 54.24625 -28.0440625 54.6175 -29.25 55 C-30.41015625 55.37125 -31.5703125 55.7425 -32.765625 56.125 C-36 57 -36 57 -40 57 C-40 54.69 -40 52.38 -40 50 C-41.98 49.34 -43.96 48.68 -46 48 C-46 47.01 -46 46.02 -46 45 C-44.02 44.34 -42.04 43.68 -40 43 C-40 41.02 -40 39.04 -40 37 C-33.8887076 38.0388092 -27.92295536 39.15730278 -22 41 C-21.34 39.02 -20.68 37.04 -20 35 C-20.70511719 34.73445313 -21.41023438 34.46890625 -22.13671875 34.1953125 C-25.15567786 32.93501033 -27.95185076 31.46042006 -30.8125 29.875 C-31.78832031 29.33617187 -32.76414063 28.79734375 -33.76953125 28.2421875 C-34.50558594 27.83226562 -35.24164063 27.42234375 -36 27 C-35.319375 26.34 -34.63875 25.68 -33.9375 25 C-31.23797743 20.82009408 -32.0280147 18.77892774 -33 14 C-32.39671875 14.02320313 -31.7934375 14.04640625 -31.171875 14.0703125 C-30.37265625 14.08835938 -29.5734375 14.10640625 -28.75 14.125 C-27.56664062 14.15980469 -27.56664062 14.15980469 -26.359375 14.1953125 C-23.61010274 14.11496763 -23.61010274 14.11496763 -20 12 C-17.36 16.29 -14.72 20.58 -12 25 C-10.35 24.34 -8.7 23.68 -7 23 C-7.28875 22.09636719 -7.5775 21.19273437 -7.875 20.26171875 C-8.24625 19.08222656 -8.6175 17.90273437 -9 16.6875 C-9.37125 15.51574219 -9.7425 14.34398437 -10.125 13.13671875 C-11 10 -11 10 -11 7 C-8.36 7 -5.72 7 -3 7 C-2.690625 6.030625 -2.38125 5.06125 -2.0625 4.0625 C-1 1 -1 1 0 0 Z " fill="#FACF19" transform="translate(274,162)"/>
<path d="M0 0 C6.44896553 2.83363637 10.14353804 6.88420876 13.203125 13.1953125 C15.11861165 19.33438773 15.11163953 25.11612201 12.140625 30.8828125 C8.72020696 36.39402128 4.85446472 40.11513706 -1.171875 42.5703125 C-8.71299861 43.87050623 -14.02536953 43.93631236 -20.71484375 39.82421875 C-25.20379186 36.31222745 -28.79484232 31.89107719 -29.796875 26.1953125 C-30.67109306 18.54867097 -30.20774418 13.22683757 -25.44921875 7.03515625 C-18.35782636 -0.86093315 -10.26826225 -2.95427657 0 0 Z " fill="#FCFBFC" transform="translate(281.796875,274.8046875)"/>
<path d="M0 0 C4.86681695 2.66309244 8.81981469 5.06055522 10.75 10.4375 C11.78443439 15.79376623 11.33605039 20.08425695 8.5625 24.8125 C5.89626214 28.56189699 2.89026339 31.3673683 -1.25 33.4375 C-8.65493383 34.13242456 -15.1600729 34.04723648 -21.25 29.4375 C-25.67806634 25.19762648 -27.40140446 21.34727834 -27.625 15.25 C-27.55593885 9.44886307 -26.20599781 5.69395334 -22.25 1.4375 C-15.31257887 -4.63919891 -7.93312833 -3.63074462 0 0 Z " fill="#0C0C0C" transform="translate(508.25,322.5625)"/>
<path d="M0 0 C5.76183158 1.93462958 8.98076213 5.97114319 12.25 10.875 C13.60378185 14.71071525 13.6590361 18.21312894 12.2421875 22.0546875 C9.39649169 27.99255671 6.13507234 33.12363717 0.1171875 36.26171875 C-5.01373078 38.0509135 -10.36323762 38.20412149 -15.34375 35.9296875 C-20.20389501 32.61100639 -23.24668038 28.62158102 -25 23 C-25.84027784 17.1180551 -24.37534686 12.76464709 -21 8 C-14.2572175 1.08398396 -9.70791636 -0.96542815 0 0 Z " fill="#0D0D0D" transform="translate(442,87)"/>
<path d="M0 0 C4.00432717 3.77188601 6.76598695 7.74150193 7.3359375 13.2421875 C7.4668008 25.41247485 7.4668008 25.41247485 3 30 C-2.37132643 34.84729459 -6.82861413 35.5373742 -13.9140625 35.46875 C-19.07574329 34.68469722 -21.9023425 32.06810157 -25 28 C-28.55798779 22.25897563 -28.87378486 15.57793096 -28 9 C-26.25364558 3.65240623 -22.88758515 0.64744196 -18 -2 C-11.78456787 -4.40597373 -5.66664098 -3.14813388 0 0 Z " fill="#0C0C0C" transform="translate(240,33)"/>
<path d="M0 0 C3.39417765 3.12621626 5.6062718 5.56541027 7 10 C6.61666504 10.43344727 6.23333008 10.86689453 5.83837891 11.31347656 C4.09615248 13.28845726 2.36053965 15.26914146 0.625 17.25 C0.02171875 17.93191406 -0.5815625 18.61382812 -1.203125 19.31640625 C-2.07324219 20.31220703 -2.07324219 20.31220703 -2.9609375 21.328125 C-3.49509277 21.9355957 -4.02924805 22.54306641 -4.57958984 23.16894531 C-6.02250544 25.02901183 -7.02273888 26.86404532 -8 29 C-7.38479492 28.75241943 -6.76958984 28.50483887 -6.13574219 28.24975586 C-3.34495103 27.13412367 -0.54770179 26.03568046 2.25 24.9375 C3.70212891 24.35258789 3.70212891 24.35258789 5.18359375 23.75585938 C6.11816406 23.39169922 7.05273438 23.02753906 8.015625 22.65234375 C8.87446289 22.31195068 9.73330078 21.97155762 10.61816406 21.62084961 C13.2636731 20.93127094 14.50353075 20.91537541 17 22 C19.25 25.0625 19.25 25.0625 21 28 C19.59617042 31.35407073 18.07220467 32.97674202 15.11328125 35.05859375 C14.33919922 35.60966797 13.56511719 36.16074219 12.76757812 36.72851562 C11.95740234 37.29248047 11.14722656 37.85644531 10.3125 38.4375 C9.52166016 38.99759766 8.73082031 39.55769531 7.91601562 40.13476562 C6.35745966 41.23772389 4.7964751 42.33725955 3.23291016 43.43310547 C0.14123109 45.60262179 -2.92937114 47.80082137 -6 50 C-7.9375 49.25 -7.9375 49.25 -10 48 C-10.33 46.68 -10.66 45.36 -11 44 C-5.06 39.71 0.88 35.42 7 31 C2.98878278 32.00280431 -0.69084866 33.431961 -4.5 35 C-12.46391753 38.27835052 -12.46391753 38.27835052 -16 39 C-17.32 37.35 -18.64 35.7 -20 34 C-18.55787185 29.3388358 -15.83257679 26.36049554 -12.5 22.9375 C-9.47954091 19.81167606 -6.83918342 16.98187478 -5 13 C-5.46374023 13.35827881 -5.92748047 13.71655762 -6.40527344 14.08569336 C-8.51509064 15.70970433 -10.63239913 17.32365366 -12.75 18.9375 C-13.47960937 19.50146484 -14.20921875 20.06542969 -14.9609375 20.64648438 C-15.66992188 21.18466797 -16.37890625 21.72285156 -17.109375 22.27734375 C-17.75874023 22.77484131 -18.40810547 23.27233887 -19.07714844 23.78491211 C-21.09482137 25.0599195 -22.63947026 25.67735318 -25 26 C-26.8125 24.8125 -26.8125 24.8125 -28 23 C-27.9296875 21.14453125 -27.9296875 21.14453125 -27 19 C-24.55078125 16.9921875 -24.55078125 16.9921875 -21.3125 14.875 C-20.13717431 14.0937199 -18.96272745 13.31111647 -17.7890625 12.52734375 C-17.17321289 12.11983887 -16.55736328 11.71233398 -15.92285156 11.29248047 C-12.62784087 9.0776777 -9.41028429 6.75557747 -6.1875 4.4375 C-4.99351271 3.58199898 -3.79950437 2.72652733 -2.60546875 1.87109375 C-1.74566406 1.25363281 -0.88585937 0.63617188 0 0 Z " fill="#0E0E0E" transform="translate(470,115)"/>
<path d="M0 0 C2.51371105 1.84338811 3.09169206 3.38418786 3.875 6.375 C3.56918836 8.93447619 3.17830125 10.0769042 1.32446289 11.89892578 C0.6721167 12.3679834 0.01977051 12.83704102 -0.65234375 13.3203125 C-1.36197266 13.83980469 -2.07160156 14.35929688 -2.80273438 14.89453125 C-3.54845703 15.42433594 -4.29417969 15.95414063 -5.0625 16.5 C-6.53080839 17.56391764 -7.9982937 18.62897239 -9.46484375 19.6953125 C-10.11831787 20.16211426 -10.77179199 20.62891602 -11.44506836 21.10986328 C-13.25372005 22.41074179 -13.25372005 22.41074179 -15.125 24.375 C-2.75 23.385 -2.75 23.385 9.875 22.375 C11.195 25.015 12.515 27.655 13.875 30.375 C13.545 31.365 13.215 32.355 12.875 33.375 C10.49609375 34.515625 10.49609375 34.515625 7.3125 35.625 C3.3330864 37.06005402 -0.55719393 38.53301751 -4.40625 40.2890625 C-5.11837646 40.61358398 -5.83050293 40.93810547 -6.56420898 41.27246094 C-7.96096179 41.91551006 -9.35386752 42.56699365 -10.74243164 43.22753906 C-15.59142141 45.44095742 -15.59142141 45.44095742 -18.58984375 45.0703125 C-19.09644531 44.84085938 -19.60304688 44.61140625 -20.125 44.375 C-20.455 42.725 -20.785 41.075 -21.125 39.375 C-13.62283503 35.44716494 -6.15886692 32.06349877 1.875 29.375 C1.30579834 29.46587891 0.73659668 29.55675781 0.15014648 29.65039062 C-2.461557 30.06414684 -5.07448286 30.46962627 -7.6875 30.875 C-9.03038086 31.08962891 -9.03038086 31.08962891 -10.40039062 31.30859375 C-15.37503648 32.07392388 -20.09239357 32.54068252 -25.125 32.375 C-26.41858821 30.24438413 -27.1865083 28.95154071 -26.91772461 26.43212891 C-25.89935671 23.78945323 -24.65013007 22.88252871 -22.37890625 21.2109375 C-21.62416016 20.64632812 -20.86941406 20.08171875 -20.09179688 19.5 C-19.29837891 18.9225 -18.50496094 18.345 -17.6875 17.75 C-16.12550949 16.59221438 -14.56427651 15.43340584 -13.00390625 14.2734375 C-12.3085376 13.76474121 -11.61316895 13.25604492 -10.89672852 12.73193359 C-9.01375172 11.35137103 -9.01375172 11.35137103 -7.125 9.375 C-8.01638672 9.84679687 -8.01638672 9.84679687 -8.92578125 10.328125 C-24.51054217 18.375 -24.51054217 18.375 -31.125 18.375 C-31.785 16.395 -32.445 14.415 -33.125 12.375 C-29.35489721 10.6801307 -25.58288771 8.98958751 -21.80908203 7.30297852 C-20.52632763 6.7289613 -19.24409448 6.15377775 -17.96240234 5.57739258 C-16.11694566 4.7477245 -14.26943264 3.9226352 -12.421875 3.09765625 C-11.31166992 2.60015869 -10.20146484 2.10266113 -9.05761719 1.59008789 C-3.052856 -0.89789882 -3.052856 -0.89789882 0 0 Z " fill="#0D0D0D" transform="translate(500.125,160.625)"/>
<path d="M0 0 C3.50625 -0.0825 7.0125 -0.165 10.625 -0.25 C11.71893066 -0.28641602 12.81286133 -0.32283203 13.93994141 -0.36035156 C19.94894168 -0.42869829 23.46221293 -0.07044023 28 4 C29.59220976 7.18441952 29.3976617 10.5337155 29 14 C27.5 17 27.5 17 26 19 C26.48082031 19.52078125 26.96164062 20.0415625 27.45703125 20.578125 C29.45173865 23.70905813 29.50318411 26.06368221 29.6875 29.75 C29.78611328 31.50570313 29.78611328 31.50570313 29.88671875 33.296875 C29.92410156 34.18890625 29.96148437 35.0809375 30 36 C27.36 36 24.72 36 22 36 C21.86722656 35.14535156 21.73445313 34.29070313 21.59765625 33.41015625 C21.42105469 32.30542969 21.24445313 31.20070313 21.0625 30.0625 C20.88847656 28.96035156 20.71445312 27.85820313 20.53515625 26.72265625 C20.28154864 24.09573071 20.28154864 24.09573071 19 23 C17.15108054 22.76636119 15.29511969 22.58696365 13.4375 22.4375 C11.643125 22.293125 9.84875 22.14875 8 22 C8 26.95 8 31.9 8 37 C5.36 37 2.72 37 0 37 C0 24.79 0 12.58 0 0 Z " fill="#0F0F0F" transform="translate(257,26)"/>
<path d="M0 0 C2.47378124 2.47378124 3.03138231 4.56174345 4.125 7.875 C4.47820312 8.92429687 4.83140625 9.97359375 5.1953125 11.0546875 C6 14 6 14 6 18 C12.27 18 18.54 18 25 18 C25 18.66 25 19.32 25 20 C22.86229382 21.62677091 20.7324466 23.13979644 18.5 24.625 C17.87996094 25.04523438 17.25992188 25.46546875 16.62109375 25.8984375 C15.08482736 26.93837167 13.54292476 27.96997056 12 29 C12.43465329 33.12920623 12.92861592 36.76205308 14.125 40.75 C15 44 15 44 14 48 C9.71 44.7 5.42 41.4 1 38 C-3.28335535 40.14167767 -6.8956804 42.73128101 -10.7578125 45.5390625 C-13 47 -13 47 -15 47 C-14.79503906 46.20335937 -14.59007812 45.40671875 -14.37890625 44.5859375 C-14.10949219 43.52632812 -13.84007812 42.46671875 -13.5625 41.375 C-13.29566406 40.33085937 -13.02882813 39.28671875 -12.75390625 38.2109375 C-12.03547461 35.15108876 -11.48023284 32.1051949 -11 29 C-11.9384375 28.28972656 -12.876875 27.57945313 -13.84375 26.84765625 C-15.06262553 25.91943565 -16.28136874 24.99104128 -17.5 24.0625 C-18.12003906 23.59392578 -18.74007812 23.12535156 -19.37890625 22.64257812 C-20.93766786 21.45209536 -22.47109164 20.22858708 -24 19 C-24 18.67 -24 18.34 -24 18 C-18.06 17.67 -12.12 17.34 -6 17 C-4.02 11.39 -2.04 5.78 0 0 Z " fill="#FCD21E" transform="translate(273,99)"/>
<path d="M0 0 C-0.64844086 4.19283118 -1.51216646 8.26499921 -2.5625 12.375 C-2.83191406 13.43460938 -3.10132813 14.49421875 -3.37890625 15.5859375 C-3.58386719 16.38257813 -3.78882813 17.17921875 -4 18 C-2.92685547 18.38478516 -2.92685547 18.38478516 -1.83203125 18.77734375 C1.18696918 20.08071911 3.63346126 21.66137473 6.3125 23.5625 C7.19550781 24.18253906 8.07851562 24.80257812 8.98828125 25.44140625 C9.65214844 25.95574219 10.31601563 26.47007812 11 27 C11 27.33 11 27.66 11 28 C7.00204108 28.95619733 3.29196078 29.1039592 -0.8125 29.0625 C-1.97394531 29.05347656 -3.13539063 29.04445312 -4.33203125 29.03515625 C-5.21246094 29.02355469 -6.09289062 29.01195312 -7 29 C-7.12117188 29.80824219 -7.24234375 30.61648437 -7.3671875 31.44921875 C-7.53476563 32.51785156 -7.70234375 33.58648437 -7.875 34.6875 C-8.03742188 35.74324219 -8.19984375 36.79898438 -8.3671875 37.88671875 C-8.95893069 40.79794914 -9.8031806 43.28955607 -11 46 C-13.52861573 43.73946101 -14.83856528 41.60099936 -16.1875 38.5 C-16.53167969 37.7265625 -16.87585938 36.953125 -17.23046875 36.15625 C-18 34 -18 34 -18 31 C-24.6 31 -31.2 31 -38 31 C-34.92302025 27.92302025 -31.95835098 25.01484576 -28.6875 22.1875 C-27.99011719 21.58292969 -27.29273438 20.97835937 -26.57421875 20.35546875 C-26.05472656 19.90816406 -25.53523437 19.46085937 -25 19 C-26.76463072 12.89262558 -28.69557475 6.92566493 -31 1 C-27.04093183 2.43308135 -23.71281819 4.33141949 -20.1875 6.625 C-19.21167969 7.25664062 -18.23585937 7.88828125 -17.23046875 8.5390625 C-16.49441406 9.02117187 -15.75835937 9.50328125 -15 10 C-9.49145532 5.90389385 -9.49145532 5.90389385 -4.125 1.625 C-2 0 -2 0 0 0 Z " fill="#FCD21D" transform="translate(206,146)"/>
<path d="M0 0 C-0.2165625 0.88042969 -0.433125 1.76085937 -0.65625 2.66796875 C-0.9346875 3.82941406 -1.213125 4.99085938 -1.5 6.1875 C-1.7784375 7.33605469 -2.056875 8.48460937 -2.34375 9.66796875 C-2.5603125 10.76753906 -2.776875 11.86710938 -3 13 C-3.1753125 13.86882812 -3.350625 14.73765625 -3.53125 15.6328125 C-3.17722644 18.38285755 -3.17722644 18.38285755 0.0625 20.38671875 C1.36425013 21.17175378 2.67740574 21.93811503 4 22.6875 C6.3772567 24.07576284 8.68884578 25.4995185 11 27 C11 27.66 11 28.32 11 29 C5.06 29.33 -0.88 29.66 -7 30 C-8.32 35.61 -9.64 41.22 -11 47 C-11.66 47 -12.32 47 -13 47 C-14.98 42.05 -16.96 37.1 -19 32 C-24.94 31.67 -30.88 31.34 -37 31 C-37 30.34 -37 29.68 -37 29 C-34.16298763 26.77124308 -31.24618982 24.67612283 -28.30859375 22.58203125 C-25.60623968 20.14188795 -25.60623968 20.14188795 -26.02734375 16.49609375 C-26.85319208 13.52768309 -27.73734985 10.98648491 -29.125 8.25 C-30.2578125 6.015625 -30.2578125 6.015625 -31 4 C-30.67 3.01 -30.34 2.02 -30 1 C-29.03578125 1.67289063 -28.0715625 2.34578125 -27.078125 3.0390625 C-25.8026518 3.90188261 -24.52657851 4.76381609 -23.25 5.625 C-22.61578125 6.07101563 -21.9815625 6.51703125 -21.328125 6.9765625 C-19.24889596 8.41386227 -19.24889596 8.41386227 -16 10 C-13.7555287 9.6756478 -13.7555287 9.6756478 -12 8 C-11.17242187 7.35804688 -10.34484375 6.71609375 -9.4921875 6.0546875 C-7.74175928 4.59686818 -5.99176188 3.13853142 -4.2421875 1.6796875 C-2 0 -2 0 0 0 Z " fill="#FCD21D" transform="translate(371,145)"/>
<path d="M0 0 C5.76194874 5.10344032 8.56994723 10.6966468 9.4765625 18.390625 C9.7249698 22.75736389 9.72946999 25.92391315 6.9375 29.4375 C2.55952145 33.4174805 -0.71687497 34.49448053 -6.5703125 34.29296875 C-9.40996705 33.84277961 -11.41135597 32.83318751 -13.4609375 30.80078125 C-18.42902615 23.95171106 -20.83466537 16.02013188 -20.4140625 7.5859375 C-19.56155005 3.83266842 -18.16100097 2.03052201 -15.015625 -0.13671875 C-9.98931185 -2.2488397 -5.02844492 -1.89963475 0 0 Z " fill="#0C0C0C" transform="translate(342.8125,486.0625)"/>
<path d="M0 0 C3.87303022 1.67057203 5.69691006 4.5049531 7.875 8.0625 C10.23352764 14.53079736 10.15142347 22.26617564 7.375 28.5625 C5.17459738 32.2247618 3.18825741 33.78159785 -1 35 C-6.55811315 35.71928523 -10.54367732 36.05654783 -15.1875 32.6875 C-17 30 -17 30 -17 27 C-10.9453125 26.8046875 -10.9453125 26.8046875 -9 27 C-8.34 27.66 -7.68 28.32 -7 29 C-4.41645782 29.16687448 -4.41645782 29.16687448 -2 29 C-1.01 26.36 -0.02 23.72 1 21 C0.44183594 21.32097656 -0.11632812 21.64195312 -0.69140625 21.97265625 C-4.68686221 23.75066795 -8.72202555 23.69222888 -13 23 C-16.34625024 20.47323961 -17.67977847 18.96066458 -19 15 C-19.67195988 8.16840786 -19.67195988 8.16840786 -17.953125 5.1796875 C-12.86682211 -1.01363425 -7.63101046 -0.8678404 0 0 Z " fill="#0D0D0D" transform="translate(301,492)"/>
<path d="M0 0 C4.74916395 1.70253047 7.24137392 3.80434904 10 8 C11.29815907 15.91429392 10.80481939 23.38491727 6.484375 30.265625 C3.83171313 33.36505097 2.05599197 34.83816215 -2.05859375 35.46875 C-12.30791565 35.56354142 -12.30791565 35.56354142 -15.3125 32.75 C-17 30 -17 30 -17 26 C-13.625 25.8125 -13.625 25.8125 -10 26 C-9.34 26.99 -8.68 27.98 -8 29 C-5.54290625 29.58350505 -5.54290625 29.58350505 -3 29 C-1.02389614 26.95575462 0 25.8823175 0 23 C-0.65226562 23.05800781 -1.30453125 23.11601563 -1.9765625 23.17578125 C-10.00590855 23.59027551 -10.00590855 23.59027551 -13.5625 20.625 C-16.81326106 17.12418039 -17.45221231 14.99994935 -17.42578125 10.171875 C-16.65151767 6.2224204 -13.92865376 3.61757913 -11 1 C-7.54155176 -0.72922412 -3.78834735 -0.35136443 0 0 Z " fill="#0D0D0D" transform="translate(258,491)"/>
<path d="M0 0 C4.79113272 2.27514534 9.01288326 5.31686953 13.375 8.3125 C14.21289062 8.88162109 15.05078125 9.45074219 15.9140625 10.03710938 C20.47707312 13.16162372 24.82329873 16.37429678 29 20 C27.125 24.75 27.125 24.75 26 27 C19.78806307 27.04974524 13.63695856 26.87731278 7.4375 26.5 C4.653125 26.335 1.86875 26.17 -1 26 C4.94 29.96 10.88 33.92 17 38 C16 40 15 42 14 44 C8.85906416 43.5495561 5.76021904 40.91722824 1.8125 37.875 C0.48502346 36.87544031 -0.84310385 35.8767443 -2.171875 34.87890625 C-2.81962891 34.38922363 -3.46738281 33.89954102 -4.13476562 33.39501953 C-8.01554293 30.49256384 -12.0106901 27.75027718 -16 25 C-14.125 20.25 -14.125 20.25 -13 18 C-3.95505128 17.85642939 4.97503561 18.42698639 14 19 C8.39 15.04 2.78 11.08 -3 7 C-2 2 -2 2 0 0 Z " fill="#0D0D0D" transform="translate(77,124)"/>
<path d="M0 0 C22.59332236 8.67263358 22.59332236 8.67263358 31 15 C32.2077558 18.62326739 31.54311128 19.64146369 30 23 C29.35973877 23.05534912 28.71947754 23.11069824 28.05981445 23.16772461 C25.1437846 23.42144165 22.22814766 23.67942949 19.3125 23.9375 C18.30509766 24.02451172 17.29769531 24.11152344 16.25976562 24.20117188 C15.28330078 24.28818359 14.30683594 24.37519531 13.30078125 24.46484375 C12.40528564 24.543396 11.50979004 24.62194824 10.5871582 24.70288086 C8.01701177 24.9980463 5.52813451 25.45612236 3 26 C4.12019531 26.55429687 5.24039062 27.10859375 6.39453125 27.6796875 C7.86724038 28.41135191 9.33989372 29.14312861 10.8125 29.875 C11.55048828 30.23980469 12.28847656 30.60460937 13.04882812 30.98046875 C14.11713867 31.51220703 14.11713867 31.51220703 15.20703125 32.0546875 C15.8616333 32.37937012 16.51623535 32.70405273 17.19067383 33.03857422 C19 34 19 34 22 36 C21.34 37.98 20.68 39.96 20 42 C13.99594644 41.07805777 8.95830345 38.27652186 3.56933594 35.59008789 C1.74832941 34.68667121 -0.08227487 33.80513677 -1.9140625 32.92382812 C-3.06132812 32.35470703 -4.20859375 31.78558594 -5.390625 31.19921875 C-6.44282227 30.68190186 -7.49501953 30.16458496 -8.57910156 29.6315918 C-11 28 -11 28 -12.03808594 26.11254883 C-11.980529 22.9199834 -11.04880151 21.42485548 -9 19 C-6.1809082 18.2487793 -6.1809082 18.2487793 -2.80078125 18.07421875 C-1.59228516 18.00009766 -0.38378906 17.92597656 0.86132812 17.84960938 C2.7552832 17.76936523 2.7552832 17.76936523 4.6875 17.6875 C5.96173828 17.61466797 7.23597656 17.54183594 8.54882812 17.46679688 C11.69870497 17.2898375 14.84809806 17.13516743 18 17 C17.42967041 16.74831055 16.85934082 16.49662109 16.27172852 16.23730469 C13.69494966 15.08996636 11.12889135 13.92037719 8.5625 12.75 C7.66466797 12.35425781 6.76683594 11.95851563 5.84179688 11.55078125 C4.98779297 11.15761719 4.13378906 10.76445312 3.25390625 10.359375 C2.06776733 9.82521973 2.06776733 9.82521973 0.85766602 9.28027344 C-1 8 -1 8 -1.82446289 5.99316406 C-2.04804991 3.45440961 -1.30335002 2.14669415 0 0 Z " fill="#0C0C0C" transform="translate(474,357)"/>
<path d="M0 0 C3.84680449 0.67586609 5.76896619 1.8749056 8.66796875 4.46875 C10.90815397 8.94912043 10.01605352 14.84641639 8.66796875 19.53125 C8.33796875 20.500625 8.00796875 21.47 7.66796875 22.46875 C8.90546875 22.613125 10.14296875 22.7575 11.41796875 22.90625 C14.23301374 23.25563502 16.93811845 23.67254366 19.66796875 24.46875 C19.33796875 26.77875 19.00796875 29.08875 18.66796875 31.46875 C11.02419376 31.9273765 4.08177263 30.20672726 -3.33203125 28.46875 C-5.20955078 28.03949219 -5.20955078 28.03949219 -7.125 27.6015625 C-10.19586873 26.89831012 -13.26468482 26.18718164 -16.33203125 25.46875 C-16.18274576 23.90087346 -16.03127027 22.33320537 -15.87890625 20.765625 C-15.79479492 19.89260742 -15.71068359 19.01958984 -15.62402344 18.12011719 C-15.03234914 12.74755624 -14.39029197 7.52426381 -11.39453125 2.90625 C-7.45482924 -0.22943119 -4.9240693 -0.26580671 0 0 Z " fill="#0F0F0F" transform="translate(42.33203125,217.53125)"/>
<path d="M0 0 C4.15800543 2.74585264 6.80440883 5.09807622 8 10 C8.49176681 14.7209614 7.80814154 17.194072 5 21 C2.30078125 22.58203125 2.30078125 22.58203125 -0.6875 23.8125 C-1.68136719 24.23144531 -2.67523438 24.65039062 -3.69921875 25.08203125 C-4.45847656 25.38496094 -5.21773437 25.68789062 -6 26 C-5.49853395 28.70159189 -4.97198428 31.06921532 -3.9375 33.625 C-3 36 -3 36 -3 39 C-5.31 39.66 -7.62 40.32 -10 41 C-13.16617343 34.40813072 -15.80418553 27.84075338 -18.015625 20.87109375 C-19.20961314 17.38862834 -20.71592214 14.12843796 -22.36328125 10.83984375 C-23 9 -23 9 -22 6 C-19.3828125 4.90234375 -19.3828125 4.90234375 -16.125 3.9375 C-2.14979757 -0.25506073 -2.14979757 -0.25506073 0 0 Z " fill="#0E0E0E" transform="translate(195,42)"/>
<path d="M0 0 C5.56869645 2.91693624 7.53647987 8.50687426 10 14 C10.61488281 13.71125 11.22976562 13.4225 11.86328125 13.125 C12.67152344 12.75375 13.47976562 12.3825 14.3125 12 C15.11300781 11.62875 15.91351563 11.2575 16.73828125 10.875 C19 10 19 10 22 10 C24 13 24 13 24.078125 14.9453125 C22.32046416 18.29505743 19.05031297 19.35430832 15.75 20.875 C15.03432861 21.216521 14.31865723 21.55804199 13.58129883 21.90991211 C12.10938327 22.60972874 10.63448912 23.30331362 9.15673828 23.99072266 C7.1430532 24.93305615 5.14633248 25.90354617 3.15234375 26.88671875 C-5.61654784 31.12781739 -5.61654784 31.12781739 -9 30 C-12.94678431 23.84741118 -17.31911583 16.41013828 -16.703125 8.90625 C-14.09192561 1.82699832 -6.84176456 -0.57981056 0 0 Z " fill="#0B0B0B" transform="translate(60,367)"/>
<path d="M0 0 C4.18688533 0.76417079 6.39454101 2.64786444 9.546875 5.46484375 C11.40455725 9.18020826 10.87922887 12.40972907 9.65234375 16.3046875 C8.65551422 19.04156576 7.62529466 21.75916585 6.546875 24.46484375 C7.25714844 24.64660156 7.96742187 24.82835937 8.69921875 25.015625 C9.61832031 25.26699219 10.53742187 25.51835937 11.484375 25.77734375 C12.40089844 26.02097656 13.31742188 26.26460937 14.26171875 26.515625 C15.01582031 26.82886719 15.76992187 27.14210937 16.546875 27.46484375 C17.546875 30.46484375 17.546875 30.46484375 16.609375 32.65234375 C16.25875 33.25046875 15.908125 33.84859375 15.546875 34.46484375 C8.60920378 33.10284695 2.25242062 31.03014119 -4.328125 28.46484375 C-5.26398437 28.1090625 -6.19984375 27.75328125 -7.1640625 27.38671875 C-10.87822368 25.95655324 -14.12758381 24.68187121 -17.453125 22.46484375 C-16.86339209 18.12285416 -15.81257092 14.38771281 -14.140625 10.33984375 C-13.73199219 9.32664063 -13.32335938 8.3134375 -12.90234375 7.26953125 C-9.67362348 1.02095672 -6.77732934 -0.25064088 0 0 Z " fill="#0B0B0B" transform="translate(53.453125,180.53515625)"/>
<path d="M0 0 C0 2.64 0 5.28 0 8 C-0.639375 8.28875 -1.27875 8.5775 -1.9375 8.875 C-4.15206079 9.82823451 -4.15206079 9.82823451 -5 12 C-5.3052622 16.65275976 -5.3052622 16.65275976 -4 21 C-1.57434853 21.12365879 -1.57434853 21.12365879 1 20 C2.27475269 17.31852023 3.20451284 14.93606906 4.0625 12.125 C6.43167702 4.57283348 6.43167702 4.57283348 8.96875 2.015625 C12.10460489 0.44769756 14.55170571 0.63702165 18 1 C20.97860036 2.28621379 22.64365978 3.606797 24.8125 6 C26.65270883 10.64894862 26.65144214 15.07075446 26 20 C23.8405609 24.47883666 21.51926845 26.91418379 17 29 C16.01 29 15.02 29 14 29 C14 26.36 14 23.72 14 21 C14.9590625 20.566875 14.9590625 20.566875 15.9375 20.125 C18.15206079 19.17176549 18.15206079 19.17176549 19 17 C19.039992 15.00039988 19.04346799 12.99952758 19 11 C17.02 10.34 15.04 9.68 13 9 C12.76216797 10.16015625 12.76216797 10.16015625 12.51953125 11.34375 C9.34797527 25.50185626 9.34797527 25.50185626 5 29 C1.12758924 30.03808602 -2.12162116 29.99579997 -6 29 C-9.28756661 26.68147595 -10.73374443 23.79876671 -12 20 C-12.50704484 14.70512196 -12.64847741 10.34499019 -10.3125 5.5 C-7.13275364 2.06243637 -4.77573507 0 0 0 Z " fill="#0F0F0F" transform="translate(502,265)"/>
<path d="M0 0 C3.375 2 3.375 2 6 4 C5 7 5 7 2 9 C-0.12109375 8.87109375 -0.12109375 8.87109375 -2.4375 8.4375 C-6.10003909 7.92685343 -6.10003909 7.92685343 -9.5625 9.1875 C-11.41426314 11.13677438 -11.41426314 11.13677438 -11 15 C-5.40270904 15.212041 -5.40270904 15.212041 0 14 C3.80016833 12.73327722 7.05909679 11.98349719 11 13 C14.97043012 15.84323174 16.78552156 18.77747287 17.625 23.5625 C16.72482442 28.51346568 15.09383736 31.40868361 11.046875 34.484375 C5.8640585 37.71004401 1.08793556 39.30708094 -5 38 C-8.0625 36.125 -8.0625 36.125 -10 34 C-10 33.34 -10 32.68 -10 32 C-7.6742266 29.97432639 -5.97692758 28.93816914 -2.83984375 29.13671875 C-2.06769531 29.25660156 -1.29554688 29.37648438 -0.5 29.5 C2.73911443 29.9866783 3.88146984 30.04354169 7.0625 28.875 C9.2721402 27.13277077 9.2721402 27.13277077 9.3125 24.3125 C9.209375 23.549375 9.10625 22.78625 9 22 C5.07658796 21.8365245 1.79153437 21.94844164 -2 23 C-5.80146677 24.00735193 -9.04514409 24.52233946 -13 24 C-16.57080513 21.05020446 -18.78414179 18.89955225 -19.3125 14.25 C-18.91189446 10.08370243 -17.65474438 8.21363793 -15 5 C-10.05296029 1.26448022 -6.25343419 -0.61308178 0 0 Z " fill="#0D0D0D" transform="translate(158,59)"/>
<path d="M0 0 C1.32 0.66 2.64 1.32 4 2 C4 6.97170955 2.88077848 7.60346276 -0.5 11.0625 C-4.1660447 14.42385384 -4.1660447 14.42385384 -5 19 C-4.34 19.99 -3.68 20.98 -3 22 C0.41124018 20.58845234 1.8456223 18.93778777 4 16 C4.66 16 5.32 16 6 16 C6.66 14.68 7.32 13.36 8 12 C9.32 12 10.64 12 12 12 C12.66 13.32 13.32 14.64 14 16 C10.7 19.3 7.4 22.6 4 26 C5.66666667 30.33333333 5.66666667 30.33333333 10 32 C13.96 28.04 17.92 24.08 22 20 C26 22 26 22 26.9675293 23.8659668 C27 26 27 26 25.61645508 28.03051758 C24.92447021 28.72814209 24.23248535 29.4257666 23.51953125 30.14453125 C22.3912793 31.28245117 22.3912793 31.28245117 21.24023438 32.44335938 C20.43908203 33.22517578 19.63792969 34.00699219 18.8125 34.8125 C18.03068359 35.61365234 17.24886719 36.41480469 16.44335938 37.24023438 C15.68474609 37.99240234 14.92613281 38.74457031 14.14453125 39.51953125 C13.09809448 40.55750854 13.09809448 40.55750854 12.03051758 41.61645508 C10 43 10 43 8.07983398 43.03808594 C5.05330628 41.5274866 2.90366358 39.2712684 0.578125 36.87109375 C0.07327576 36.36199966 -0.43157349 35.85290558 -0.95172119 35.3283844 C-2.55833979 33.7050088 -4.15419822 32.071503 -5.75 30.4375 C-6.83914984 29.3332995 -7.92898605 28.22977555 -9.01953125 27.12695312 C-11.6877076 24.4257471 -14.34628291 21.71540937 -17 19 C-13.39894306 14.69919311 -9.70656885 10.60898903 -5.6875 6.6875 C-2.42613581 3.6495471 -2.42613581 3.6495471 0 0 Z " fill="#0F0F0F" transform="translate(104,94)"/>
<path d="M0 0 C3.8119799 2.10662047 6.38303207 4.96127187 8 9 C8.57358744 13.58125035 8.58194407 17.69755375 6.6875 21.9375 C6.130625 22.618125 5.57375 23.29875 5 24 C4.525625 24.598125 4.05125 25.19625 3.5625 25.8125 C2 27 2 27 -2 27 C-2.125 23.625 -2.125 23.625 -2 20 C-1.34 19.34 -0.68 18.68 0 18 C0.24253813 15.78927023 0.24253813 15.78927023 0.125 13.375 C0.10695313 12.55773437 0.08890625 11.74046875 0.0703125 10.8984375 C0.04710937 10.27195313 0.02390625 9.64546875 0 9 C-2.475 8.505 -2.475 8.505 -5 8 C-6.80010254 11.60020508 -6.86517789 15.7795043 -7.40234375 19.73828125 C-8.17786614 23.97070738 -8.82071125 27.02287504 -12.1875 29.8125 C-15.76410378 31.32262159 -18.1483641 31.48145449 -22 31 C-26.28685941 28.66171305 -28.03289368 25.79042766 -29.48828125 21.28125 C-30.55697203 16.51701018 -31.26592031 11.57872655 -29.05078125 7.06640625 C-27.04793477 4.431747 -25.34314912 3.1067575 -22.1875 2.125 C-21.1046875 2.063125 -21.1046875 2.063125 -20 2 C-19.25 5.25 -19.25 5.25 -19 9 C-20.29103643 10.3743291 -21.6256709 11.70896357 -23 13 C-23.37043252 16.55615217 -23.04916965 19.59019864 -22 23 C-20.02 23 -18.04 23 -16 23 C-15.87882812 22.2265625 -15.75765625 21.453125 -15.6328125 20.65625 C-12.98765432 4.21557455 -12.98765432 4.21557455 -10.375 1 C-6.8726294 -0.47468236 -3.68434234 -0.76520956 0 0 Z " fill="#0F0F0F" transform="translate(518,227)"/>
<path d="M0 0 C0.495 3.465 0.495 3.465 1 7 C-3.62 8.32 -8.24 9.64 -13 11 C-12.01 15.62 -11.02 20.24 -10 25 C-8.47375 24.505 -6.9475 24.01 -5.375 23.5 C-1.45484664 22.31393087 1.87182809 21.67409169 6 22 C6.495 25.465 6.495 25.465 7 29 C-0.49082017 31.20042843 -7.9996827 33.31180822 -15.5625 35.25 C-16.22830078 35.42499023 -16.89410156 35.59998047 -17.58007812 35.78027344 C-21.12932448 36.67569244 -24.33859856 37.19677397 -28 37 C-28.33 34.69 -28.66 32.38 -29 30 C-23.555 28.515 -23.555 28.515 -18 27 C-18.144375 25.80375 -18.28875 24.6075 -18.4375 23.375 C-18.55931641 22.36566406 -18.55931641 22.36566406 -18.68359375 21.3359375 C-19.06118161 18.54831354 -19.53753247 15.77480517 -20 13 C-24.29 13.99 -28.58 14.98 -33 16 C-33.66 13.69 -34.32 11.38 -35 9 C-28.2958081 6.67775544 -21.53082851 4.68137933 -14.6875 2.8125 C-13.71232422 2.53986328 -12.73714844 2.26722656 -11.73242188 1.98632812 C-10.79333984 1.72916016 -9.85425781 1.47199219 -8.88671875 1.20703125 C-8.04326904 0.9747583 -7.19981934 0.74248535 -6.33081055 0.50317383 C-4 0 -4 0 0 0 Z " fill="#0C0C0C" transform="translate(63,323)"/>
<path d="M0 0 C2.31005869 2.31005869 2.72174103 3.83083657 3.625 6.9375 C4.01558594 8.25041016 4.01558594 8.25041016 4.4140625 9.58984375 C5 12 5 12 5 15 C5.58007812 14.98839844 6.16015625 14.97679687 6.7578125 14.96484375 C11.2998246 14.91237826 15.52713569 15.08248937 20 16 C14.35475578 21.80205656 14.35475578 21.80205656 11 24 C10.34 24 9.68 24 9 24 C9.2165625 24.81984375 9.433125 25.6396875 9.65625 26.484375 C9.9346875 27.56203125 10.213125 28.6396875 10.5 29.75 C10.91765625 31.35101563 10.91765625 31.35101563 11.34375 32.984375 C12 36 12 36 12 40 C9.18473691 38.76128424 6.96377567 37.19996559 4.5625 35.3125 C1.83412238 33.36749511 1.83412238 33.36749511 -1.4375 32.8125 C-4.74635941 34.34587388 -7.40706526 36.42830351 -10.23046875 38.72265625 C-12 40 -12 40 -14 40 C-13.39363767 34.23955788 -11.24341721 29.27985631 -9 24 C-9.57234375 23.731875 -10.1446875 23.46375 -10.734375 23.1875 C-13.07884634 21.95867364 -15.12404938 20.57477824 -17.25 19 C-17.95640625 18.484375 -18.6628125 17.96875 -19.390625 17.4375 C-19.92171875 16.963125 -20.4528125 16.48875 -21 16 C-21 15.34 -21 14.68 -21 14 C-15.72 14 -10.44 14 -5 14 C-4.54625 12.4325 -4.0925 10.865 -3.625 9.25 C-2.67582623 5.97103608 -1.61725534 3.00950123 0 0 Z " fill="#0F0F0F" transform="translate(446,416)"/>
<path d="M0 0 C4.45423712 1.18104772 8.38402864 3.12836238 11 7 C11.32281509 9.75715837 11.18619952 12.20700715 11 15 C8.69 14.67 6.38 14.34 4 14 C3.9175 13.21625 3.835 12.4325 3.75 11.625 C3.26384675 8.92244851 3.26384675 8.92244851 1.25 7.6875 C-1.27508669 6.91594573 -3.37389293 6.85410516 -6 7 C-6.33 8.65 -6.66 10.3 -7 12 C-6.26394531 12.44730469 -5.52789062 12.89460938 -4.76953125 13.35546875 C6.08579324 20.08089436 6.08579324 20.08089436 9 24 C9.7654146 27.99716511 9.18455181 29.65726092 7.25 33.25 C4.5073266 36.60215637 2.70653239 37.77830546 -1.5859375 38.3359375 C-7.59419376 38.42008675 -11.34271849 38.20291259 -16 34 C-19.1807921 30.90291295 -19.95544347 29.67948711 -20.25 25.1875 C-20.12625 23.6096875 -20.12625 23.6096875 -20 22 C-16.6875 22.0625 -16.6875 22.0625 -13 23 C-11.40959161 25.28141342 -10.83493456 27.29874113 -10 30 C-7.03 30.33 -4.06 30.66 -1 31 C0.08084521 27.36380344 0.08084521 27.36380344 0 25 C-0.5775 24.71769531 -1.155 24.43539062 -1.75 24.14453125 C-13.13727883 18.35204393 -13.13727883 18.35204393 -16 13 C-16.43031846 8.59820074 -15.44803577 5.69373281 -13.0625 2 C-8.68236159 -0.86049855 -5.09022804 -0.73172028 0 0 Z " fill="#0D0D0D" transform="translate(347,34)"/>
<path d="M0 0 C0.66 0 1.32 0 2 0 C3.32 4.95 4.64 9.9 6 15 C10.95 15.33 15.9 15.66 21 16 C17.40360547 19.59639453 14.13521513 22.13715875 10 25 C10.19916016 25.97839844 10.19916016 25.97839844 10.40234375 26.9765625 C11.34482822 31.6408287 12.25768703 36.29868454 13 41 C9 38.33333333 5 35.66666667 1 33 C-3.74951052 33 -6.7148254 35.8657759 -10.23046875 38.72265625 C-12 40 -12 40 -14 40 C-13.79503906 39.43152344 -13.59007813 38.86304688 -13.37890625 38.27734375 C-12.81895273 36.67250087 -12.2850359 35.05840582 -11.7734375 33.4375 C-11.1330308 31.41924859 -10.41950279 29.42436471 -9.6875 27.4375 C-9.63997019 23.89687697 -9.63997019 23.89687697 -12.171875 21.82421875 C-14.00286473 20.36821985 -15.87216183 18.95903738 -17.77734375 17.6015625 C-18.87755859 16.80878906 -18.87755859 16.80878906 -20 16 C-20 15.67 -20 15.34 -20 15 C-14.72 15 -9.44 15 -4 15 C-3.67 12.69 -3.34 10.38 -3 8 C-2.14816137 5.25028257 -1.07924619 2.6746536 0 0 Z " fill="#0C0C0C" transform="translate(105,413)"/>
<path d="M0 0 C3.13196503 1.57592526 5.51860051 3.54251761 8 6 C8.54914063 6.46792969 9.09828125 6.93585938 9.6640625 7.41796875 C11.37970277 9.44964802 11.55416072 10.87282089 11.8125 13.5 C11.90144531 14.2734375 11.99039063 15.046875 12.08203125 15.84375 C12 18 12 18 10 21 C5.125 19.125 5.125 19.125 4 18 C3.896875 16.88625 3.79375 15.7725 3.6875 14.625 C3.30872919 11.07110001 3.30872919 11.07110001 1.4375 9.0625 C-2.06491797 7.53580499 -5.29482284 7.19708885 -9 8 C-12.31645168 10.6675807 -15.67838034 13.73195485 -16.30078125 18.12109375 C-16.31803607 21.53179581 -16.24158616 24.3396645 -15.0625 27.5625 C-11.65251404 29.93915688 -8.01621085 29.25057815 -4 29 C0 29 0 29 3 31 C2.05512317 33.36219208 1.43369642 34.72700359 -0.75 36.1015625 C-5.08135501 37.83109662 -9.43860058 37.72453168 -14 37 C-18.80834928 34.65082282 -23.06773145 31.07220494 -25 26 C-25.68209878 19.0653291 -24.56581276 13.43321519 -20.34765625 7.7890625 C-14.20161394 0.59052668 -9.56534497 -1.4166397 0 0 Z " fill="#0D0D0D" transform="translate(409,61)"/>
<path d="M0 0 C4.748026 1.55486475 8.18077238 2.77115856 11 7 C11.46229036 11.99273591 11.08578614 14.99990685 8 19 C4.25639247 21.49573835 1.33268647 21.62446193 -3 21 C-7.09522409 19.65192801 -10.14304328 17.93486188 -13.0625 14.75 C-14.37086887 10.91211799 -14.29254313 7.84551652 -13 4 C-9.39935044 -0.3644237 -5.38639874 -0.96801828 0 0 Z " fill="#F5F5F5" transform="translate(501,328)"/>
<path d="M0 0 C3.85124336 3.01401654 6.62159818 6.2529011 7.30078125 11.18359375 C7.32541678 15.92182782 7.20138684 19.22693694 4 23 C0.5762864 25.5677852 -2.84854205 25.58266077 -7 25 C-10.48817344 22.09170194 -12.84575005 18.63504946 -13.2734375 14.1015625 C-13.30695313 12.95429687 -13.34046875 11.80703125 -13.375 10.625 C-13.44847656 8.91183594 -13.44847656 8.91183594 -13.5234375 7.1640625 C-13 4 -13 4 -10.7265625 1.62109375 C-6.97942715 -0.60678758 -4.23637624 -1.00335227 0 0 Z " fill="#F5F5F5" transform="translate(233,37)"/>
<path d="M0 0 C3.64051176 0.81120099 5.09653944 2.45526886 7.15625 5.48046875 C8.34375 8.79296875 8.34375 8.79296875 8.15625 12.48046875 C5.71259822 16.99374398 2.49893535 20.71845431 -1.84375 23.48046875 C-6.767539 24.1057118 -8.6987401 24.28441187 -12.78125 21.41796875 C-15.27584094 17.8650665 -15.91990714 15.8214257 -15.84375 11.48046875 C-14.21875 8.35546875 -14.21875 8.35546875 -11.84375 5.48046875 C-11.121875 4.53171875 -10.4 3.58296875 -9.65625 2.60546875 C-6.23558192 0.02096398 -4.20406681 -0.25925079 0 0 Z " fill="#F6F6F6" transform="translate(439.84375,93.51953125)"/>
<path d="M0 0 C2.31 0 4.62 0 7 0 C7 8.25 7 16.5 7 25 C-5.0304436 25.89114397 -16.93922047 26.1112162 -29 26 C-29 23.36 -29 20.72 -29 18 C-19.43 18 -9.86 18 0 18 C0 12.06 0 6.12 0 0 Z " fill="#121212" transform="translate(52,272)"/>
<path d="M0 0 C3.91716868 0.47511984 7.83363596 0.95579618 11.75 1.4375 C13.41675781 1.63956055 13.41675781 1.63956055 15.1171875 1.84570312 C16.72207031 2.04389648 16.72207031 2.04389648 18.359375 2.24609375 C19.34389648 2.36654053 20.32841797 2.4869873 21.34277344 2.61108398 C23.62199202 2.94467414 25.78143734 3.39012541 28 4 C28 5.98 28 7.96 28 10 C22.555 9.505 22.555 9.505 17 9 C16.95101563 9.83660156 16.90203125 10.67320313 16.8515625 11.53515625 C16.28002221 20.43344724 15.27284802 29.17656807 14 38 C11.69 38 9.38 38 7 38 C7.40004547 27.84095059 7.83325876 17.9670097 10 8 C6.7 7.67 3.4 7.34 0 7 C0 4.69 0 2.38 0 0 Z " fill="#0A0A0A" transform="translate(296,26)"/>
<path d="M0 0 C2.475 0.99 2.475 0.99 5 2 C4.31875513 7.6064612 2.51618861 12.6507682 0.625 17.9375 C0.16867188 19.23977539 0.16867188 19.23977539 -0.296875 20.56835938 C-2.02886207 25.46455358 -3.89431406 30.25251789 -6 35 C-8.9375 34.625 -8.9375 34.625 -12 34 C-13 32 -13 32 -12.59448242 30.18408203 C-12.35060791 29.46591309 -12.1067334 28.74774414 -11.85546875 28.0078125 C-11.59056641 27.22019531 -11.32566406 26.43257813 -11.05273438 25.62109375 C-10.76720703 24.79738281 -10.48167969 23.97367187 -10.1875 23.125 C-9.91357422 22.30902344 -9.63964844 21.49304688 -9.35742188 20.65234375 C-8.10195057 16.96119791 -6.80483487 13.46337131 -5 10 C-7.31 9.67 -9.62 9.34 -12 9 C-12.33 7.35 -12.66 5.7 -13 4 C-12.31292969 3.96261719 -11.62585938 3.92523438 -10.91796875 3.88671875 C-10.01691406 3.82097656 -9.11585938 3.75523437 -8.1875 3.6875 C-7.29417969 3.62949219 -6.40085938 3.57148438 -5.48046875 3.51171875 C-2.69396 2.93686419 -1.75864246 2.1793144 0 0 Z " fill="#101010" transform="translate(219,483)"/>
<path d="M0 0 C0 2.31 0 4.62 0 7 C-2.13145837 7.48129705 -4.26357564 7.95981295 -6.3984375 8.42578125 C-8.01151007 8.78181979 -9.62169432 9.15160616 -11.2265625 9.54296875 C-19.38708799 11.4078311 -27.66539511 11.63258122 -36 12 C-36 9.36 -36 6.72 -36 4 C-34.24236328 3.81824219 -34.24236328 3.81824219 -32.44921875 3.6328125 C-24.65673622 2.80765775 -16.97440493 1.89463554 -9.28125 0.375 C-6.13531208 -0.14214048 -3.17979394 -0.14132417 0 0 Z " fill="#131313" transform="translate(61,306)"/>
<path d="M0 0 C4.2932314 0.61830916 7.56811477 2.1472073 11.39453125 4.16015625 C11.98674973 4.46948593 12.5789682 4.77881561 13.18913269 5.09751892 C15.06674598 6.07996017 16.93962421 7.07106248 18.8125 8.0625 C20.0901913 8.73300053 21.36818318 9.4029286 22.64648438 10.07226562 C25.76782916 11.70823288 28.88499023 13.35199595 32 15 C31.125 19.75 31.125 19.75 30 22 C23.89851776 21.10251617 18.93848934 18.05375614 13.56933594 15.1628418 C11.74893131 14.18692708 9.9180997 13.23291424 8.0859375 12.27929688 C6.36503906 11.35793945 6.36503906 11.35793945 4.609375 10.41796875 C3.55717773 9.85875732 2.50498047 9.2995459 1.42089844 8.72338867 C-1 7 -1 7 -1.97558594 4.97387695 C-2 3 -2 3 0 0 Z " fill="#0E0E0E" transform="translate(53,161)"/>
<path d="M0 0 C0.495 3.465 0.495 3.465 1 7 C-10.27150454 10.29464911 -21.50475822 13.56872437 -33 16 C-33.66 13.69 -34.32 11.38 -35 9 C-28.46444023 6.76430897 -21.88571252 4.72937844 -15.25 2.8125 C-14.33089844 2.53986328 -13.41179687 2.26722656 -12.46484375 1.98632812 C-11.57410156 1.72916016 -10.68335938 1.47199219 -9.765625 1.20703125 C-8.57114746 0.85862183 -8.57114746 0.85862183 -7.35253906 0.50317383 C-4.83856852 -0.03452784 -2.56325478 -0.08780995 0 0 Z " fill="#0E0E0E" transform="translate(518,207)"/>
<path d="M0 0 C12.10177069 0.4711755 24.00711457 1.27476648 36 3 C36 5.31 36 7.62 36 10 C23.84271885 10.63003184 12.00078319 8.73483063 0 7 C0 4.69 0 2.38 0 0 Z " fill="#0C0C0C" transform="translate(24,256)"/>
<path d="M0 0 C7.55605684 -0.37780284 14.60332615 1.05503203 22 2.5 C23.25167969 2.73847656 24.50335937 2.97695313 25.79296875 3.22265625 C28.86329068 3.80859555 31.93216282 4.40121118 35 5 C35 7.31 35 9.62 35 12 C27.44394316 12.37780284 20.39667385 10.94496797 13 9.5 C11.74832031 9.26152344 10.49664062 9.02304687 9.20703125 8.77734375 C6.13670932 8.19140445 3.06783718 7.59878882 0 7 C0 4.69 0 2.38 0 0 Z " fill="#0E0E0E" transform="translate(489,302)"/>
<path d="M0 0 C3.1875 0.625 3.1875 0.625 4.65625 2.2734375 C7.82617768 7.23105695 9.32565313 11.34811438 9.375 17.25 C9.38917969 18.02601563 9.40335937 18.80203125 9.41796875 19.6015625 C9.1875 21.625 9.1875 21.625 7.1875 23.625 C4.8125 24.125 4.8125 24.125 2.1875 23.625 C-2.30810639 18.46827502 -4.5100016 11.95248244 -5.125 5.1875 C-4.67118229 1.46619481 -3.59908306 0.79979624 0 0 Z " fill="#F4F4F4" transform="translate(334.8125,490.375)"/>
<path d="M0 0 C1.93681161 -0.08107583 3.8745934 -0.13922475 5.8125 -0.1875 C6.89144531 -0.22230469 7.97039062 -0.25710937 9.08203125 -0.29296875 C12 0 12 0 13.8984375 1.31640625 C15 3 15 3 14.8125 6.125 C14.544375 7.07375 14.27625 8.0225 14 9 C11.23547967 10.38226016 8.9538637 10.09525387 5.875 10.0625 C4.77929688 10.05347656 3.68359375 10.04445313 2.5546875 10.03515625 C1.29011719 10.01775391 1.29011719 10.01775391 0 10 C0 6.7 0 3.4 0 0 Z " fill="#E2E2E2" transform="translate(264,32)"/>
<path d="M0 0 C3 0.5 3 0.5 4.9375 1.6875 C6 3.5 6 3.5 5.8125 5.8125 C4.93053929 8.72975467 4.00384168 11.62232053 3 14.5 C-0.3 13.51 -3.6 12.52 -7 11.5 C-5.77470356 0.96245059 -5.77470356 0.96245059 0 0 Z " fill="#ECECEC" transform="translate(51,187.5)"/>
<path d="M0 0 C3.29326803 0.78411144 3.65288371 1.70932524 5.4375 4.5 C7.625 8.25576923 7.625 8.25576923 7.625 10.625 C1 14.625 1 14.625 -2.375 14.625 C-6.08180628 6.74803665 -6.08180628 6.74803665 -5.375 2.625 C-2.375 0.625 -2.375 0.625 0 0 Z " fill="#EDEDED" transform="translate(56.375,374.375)"/>
<path d="M0 0 C6.875 0.875 6.875 0.875 8 2 C8.15031917 5.98345803 7.97229218 9.11083128 7 13 C3.7 12.67 0.4 12.34 -3 12 C-3.2954439 6.97745369 -2.98514628 4.10457614 0 0 Z " fill="#EFEFEF" transform="translate(37,225)"/>
<path d="M0 0 C0.33 2.31 0.66 4.62 1 7 C-2.92186398 9.82739031 -5.13724999 11.02745 -10 12 C-10.99 8.7 -11.98 5.4 -13 2 C-8.11922548 -0.44038726 -5.47332932 -1.46845421 0 0 Z " fill="#F0F0F0" transform="translate(194,50)"/>
<path d="M0 0 C3.5 -0.3125 3.5 -0.3125 7 0 C9 2 9 2 9.265625 3.875 C9.26046875 4.57625 9.2553125 5.2775 9.25 6 C9.25515625 6.70125 9.2603125 7.4025 9.265625 8.125 C9 10 9 10 7 12 C3.89652746 12.33015665 1.84218824 12.50531294 -0.875 10.875 C-2.51151479 8.14747535 -2.32502803 6.12026907 -2 3 C-1.34 2.01 -0.68 1.02 0 0 Z " fill="#F0F0F0" transform="translate(251,497)"/>
<path d="M0 0 C2.9375 0.75 2.9375 0.75 4.9375 2.75 C5.1875 6.25 5.1875 6.25 4.9375 9.75 C2.9375 11.75 2.9375 11.75 -0.5625 12 C-4.0625 11.75 -4.0625 11.75 -6.0625 9.75 C-6.36328125 7.875 -6.36328125 7.875 -6.375 5.75 C-6.39175781 5.04875 -6.40851563 4.3475 -6.42578125 3.625 C-6.30589844 3.00625 -6.18601562 2.3875 -6.0625 1.75 C-3.0625 -0.25 -3.0625 -0.25 0 0 Z " fill="#F0F0F0" transform="translate(296.0625,497.25)"/>
<path d="M0 0 C-1.6232687 0.6708712 -3.24867578 1.33657029 -4.875 2 C-5.77992188 2.37125 -6.68484375 2.7425 -7.6171875 3.125 C-10 4 -10 4 -12 4 C-12 3.34 -12 2.68 -12 2 C-13.32 1.67 -14.64 1.34 -16 1 C-14.0852312 0.63571223 -12.16807707 0.28394694 -10.25 -0.0625 C-9.18265625 -0.25972656 -8.1153125 -0.45695313 -7.015625 -0.66015625 C-4.25228095 -0.97156937 -2.59053383 -0.8991416 0 0 Z " fill="#C2C2C2" transform="translate(504,190)"/>
<path d="M0 0 C-1.28716647 1.00578589 -2.57988658 2.00446798 -3.875 3 C-4.95394531 3.8353125 -4.95394531 3.8353125 -6.0546875 4.6875 C-8 6 -8 6 -10 6 C-10 4.68 -10 3.36 -10 2 C-3.375 -1.125 -3.375 -1.125 0 0 Z " fill="#C4C4C4" transform="translate(480,145)"/>
<path d="M0 0 C1.51588353 4.5476506 -0.16298192 8.18646083 -2.125 12.4375 C-2.41375 12.953125 -2.7025 13.46875 -3 14 C-4.25955231 10.22134307 -3.48087189 8.96588214 -2.0625 5.3125 C-1.68222656 4.31863281 -1.30195313 3.32476562 -0.91015625 2.30078125 C-0.60980469 1.54152344 -0.30945313 0.78226563 0 0 Z " fill="#BDBDBD" transform="translate(16,180)"/>
<path d="M0 0 C0.66 0.33 1.32 0.66 2 1 C-0.31 2.65 -2.62 4.3 -5 6 C-5.33 5.01 -5.66 4.02 -6 3 C-4.03533587 1.93224776 -2.03144641 0.93446535 0 0 Z " fill="#B7B7B7" transform="translate(493,169)"/>
<path d="M0 0 C0.66 0.33 1.32 0.66 2 1 C-0.31 3.31 -2.62 5.62 -5 8 C-5 5 -5 5 -2.5 2.3125 C-1.675 1.549375 -0.85 0.78625 0 0 Z " fill="#272727" transform="translate(489,322)"/>
</svg>
